<svg width="1384" height="226" viewBox="0 0 1384 226" fill="none" xmlns="http://www.w3.org/2000/svg">
<g filter="url(#filter0_d_65_164)">
<path d="M19.4117 207.25C18.0092 207.374 16.9442 206.954 16.2168 205.99C15.5475 204.956 15.2561 203.472 15.3426 201.537L15.8927 188.093L12.3544 188.405C8.59295 188.736 6.59146 187.531 6.34991 184.79C6.11397 182.112 7.52608 180.639 10.5862 180.369L16.324 179.863L16.888 167.671L13.3497 167.983C9.58827 168.314 7.58678 167.109 7.34522 164.368C7.10367 161.626 8.51297 160.121 11.5731 159.851L17.3109 159.346L17.9932 145.215C18.2581 141.658 19.8249 139.753 22.6938 139.501C25.4989 139.253 26.8234 141.16 26.6673 145.222L26.0132 158.579L36.628 157.643L37.3104 143.513C37.5752 139.956 39.1421 138.051 42.0109 137.798C44.8161 137.551 46.1406 139.458 45.9845 143.52L45.3303 156.877L48.8686 156.565C52.63 156.233 54.6315 157.438 54.8731 160.18C55.1146 162.921 53.7053 164.427 50.6452 164.696L44.9074 165.202L44.3434 177.395L47.8817 177.083C51.6432 176.751 53.6418 177.924 53.8778 180.602C54.1193 183.343 52.71 184.849 49.6499 185.119L44.0077 185.616L43.2382 199.85C43.0371 203.402 41.534 205.301 38.7289 205.548C37.3263 205.672 36.2613 205.251 35.5339 204.288C34.8646 203.254 34.5733 201.77 34.6597 199.835L35.2098 186.391L24.6906 187.318L23.921 201.552C23.72 205.104 22.2169 207.003 19.4117 207.25ZM25.1219 179.088L35.5455 178.17L36.2051 165.969L25.6859 166.896L25.1219 179.088ZM150.315 191.704C141.302 193.583 133.963 194.374 128.299 194.078C122.629 193.71 118.21 192.365 115.041 190.042C112.179 187.909 110.133 185.198 108.904 181.909C107.674 178.62 106.823 174.286 106.349 168.907L106.017 165.142L72.7738 168.071C70.9808 168.229 69.385 167.755 67.9866 166.65C66.6536 165.466 65.908 163.978 65.75 162.185C65.5921 160.392 66.069 158.832 67.1808 157.505C68.3581 156.1 69.8432 155.319 71.6363 155.161L104.879 152.232L103.685 138.676L86.7945 140.165C85.0014 140.323 83.4057 139.849 82.0073 138.743C80.6742 137.56 79.9287 136.072 79.7707 134.279C79.6127 132.485 80.0897 130.926 81.2015 129.599C82.3787 128.194 83.8639 127.413 85.6569 127.255L130.519 123.302C132.312 123.144 133.875 123.657 135.208 124.84C136.607 125.946 137.385 127.395 137.543 129.188C137.701 130.981 137.191 132.58 136.014 133.985C134.902 135.311 133.45 136.054 131.657 136.212L116.81 137.52L118.005 151.075L148.666 148.374C150.459 148.216 152.022 148.729 153.355 149.912C154.753 151.018 155.532 152.467 155.69 154.26C155.848 156.053 155.338 157.652 154.161 159.057C153.049 160.383 151.596 161.126 149.803 161.284L119.142 163.985L119.474 167.751C119.803 171.48 120.213 174.082 120.704 175.557C121.261 176.954 122.157 178.103 123.393 179.006C124.545 179.772 126.075 180.324 127.984 180.662C129.893 180.999 132.425 181.029 135.581 180.751C138.731 180.401 142.755 179.722 147.653 178.712C149.499 178.332 151.189 178.653 152.725 179.674C154.254 180.624 155.208 182.021 155.588 183.867C155.961 185.641 155.64 187.332 154.625 188.939C153.604 190.475 152.168 191.396 150.315 191.704ZM257.899 182.225C248.885 184.103 241.546 184.894 235.882 184.598C230.212 184.231 225.793 182.885 222.625 180.562C219.762 178.429 217.716 175.719 216.487 172.43C215.258 169.141 214.406 164.807 213.932 159.428L213.6 155.662L180.357 158.592C178.564 158.75 176.968 158.276 175.57 157.17C174.237 155.987 173.491 154.498 173.333 152.705C173.175 150.912 173.652 149.352 174.764 148.026C175.941 146.621 177.426 145.84 179.219 145.682L212.463 142.752L211.268 129.197L194.378 130.685C192.585 130.843 190.989 130.369 189.59 129.264C188.257 128.08 187.512 126.592 187.354 124.799C187.196 123.006 187.673 121.446 188.785 120.119C189.962 118.715 191.447 117.933 193.24 117.775L238.102 113.822C239.895 113.664 241.458 114.177 242.791 115.361C244.19 116.466 244.968 117.915 245.126 119.708C245.284 121.502 244.774 123.1 243.597 124.505C242.485 125.832 241.033 126.574 239.24 126.732L224.393 128.04L225.588 141.596L256.249 138.894C258.042 138.736 259.605 139.249 260.938 140.433C262.337 141.538 263.115 142.987 263.273 144.78C263.431 146.574 262.921 148.172 261.744 149.577C260.632 150.904 259.18 151.646 257.387 151.804L226.725 154.506L227.057 158.271C227.386 162.001 227.796 164.603 228.287 166.077C228.844 167.474 229.74 168.624 230.976 169.527C232.128 170.293 233.658 170.844 235.567 171.182C237.476 171.52 240.009 171.55 243.164 171.272C246.314 170.922 250.338 170.242 255.236 169.232C257.082 168.853 258.772 169.174 260.308 170.195C261.837 171.144 262.792 172.542 263.171 174.388C263.544 176.162 263.223 177.852 262.209 179.46C261.187 180.995 259.751 181.917 257.899 182.225ZM305.109 177.848C303.444 178.645 301.717 178.725 299.926 178.088C298.207 177.444 296.948 176.29 296.151 174.626C295.354 172.961 295.277 171.27 295.921 169.55C296.558 167.76 297.709 166.466 299.374 165.668C304.934 163.155 310.49 160.171 316.04 156.719C321.662 153.26 326.976 149.576 331.98 145.665C337.049 141.677 341.61 137.661 345.663 133.618C349.781 129.496 353.087 125.591 355.581 121.902C356.674 120.36 358.107 119.403 359.881 119.029C361.727 118.65 363.385 119.01 364.855 120.109C366.391 121.13 367.348 122.564 367.728 124.409C368.101 126.184 367.741 127.842 366.648 129.383C364.024 133.229 360.453 137.41 355.936 141.928C351.413 146.374 346.313 150.835 340.636 155.311C334.959 159.786 329.077 163.991 322.991 167.924C316.904 171.858 310.944 175.166 305.109 177.848ZM310.626 134.645C307.698 132.59 304.441 130.492 300.856 128.35C297.264 126.137 294.035 124.362 291.171 123.024C289.504 122.159 288.38 120.884 287.798 119.201C287.21 117.446 287.312 115.738 288.106 114.078C288.971 112.412 290.245 111.288 291.929 110.706C293.677 110.046 295.385 110.148 297.051 111.013C299.095 112.062 301.415 113.375 304.012 114.954C306.674 116.454 309.228 117.963 311.675 119.482C314.194 120.995 316.26 122.295 317.873 123.381C319.409 124.403 320.366 125.836 320.746 127.682C321.191 129.45 320.903 131.101 319.881 132.637C318.86 134.172 317.43 135.166 315.59 135.617C313.816 135.99 312.161 135.666 310.626 134.645ZM403.36 176.888C401.89 175.789 401.04 174.346 400.81 172.56C400.574 170.701 401.005 169.037 402.105 167.567C407.168 161.049 411.34 153.851 414.622 145.973C417.968 138.016 420.364 129.529 421.81 120.511C417.813 121.08 414.067 121.627 410.571 122.152C407.141 122.599 404.891 122.906 403.822 123.072C402.035 123.302 400.407 122.867 398.936 121.768C397.46 120.597 396.607 119.118 396.377 117.332C396.141 115.473 396.573 113.809 397.672 112.339C398.771 110.868 400.214 110.018 402.001 109.789C402.855 109.641 404.391 109.434 406.608 109.166C408.825 108.898 411.401 108.599 414.335 108.268C417.335 107.859 420.334 107.451 423.334 107.042C423.721 101.587 423.769 95.9808 423.478 90.2241C423.386 88.353 423.967 86.7478 425.223 85.4084C426.472 83.9974 427.999 83.2846 429.805 83.27C431.676 83.1774 433.281 83.7588 434.62 85.0141C436.025 86.1913 436.738 87.7186 436.759 89.596C436.921 92.2561 436.972 94.8897 436.913 97.497C436.853 100.104 436.758 102.715 436.627 105.328L439.737 104.946C447.53 103.97 453.64 104.407 458.067 106.258C462.495 108.109 465.546 111.562 467.22 116.619C468.894 121.675 469.432 128.603 468.834 137.401C468.332 144.818 467.206 150.916 465.459 155.696C463.712 160.476 461.472 164.179 458.74 166.805C456.002 169.359 452.79 171.051 449.105 171.882C445.426 172.784 441.367 173.07 436.929 172.738C435.111 172.609 433.597 171.839 432.389 170.428C431.18 169.016 430.64 167.401 430.769 165.583C430.963 163.687 431.734 162.173 433.08 161.043C434.491 159.834 436.109 159.33 437.934 159.531C440.338 159.753 442.499 159.671 444.417 159.285C446.406 158.893 448.13 157.946 449.588 156.444C451.117 154.936 452.356 152.586 453.303 149.395C454.316 146.125 455.049 141.724 455.501 136.191C455.934 130.443 455.812 126.189 455.135 123.43C454.524 120.592 453.101 118.802 450.867 118.06C448.705 117.31 445.515 117.194 441.296 117.71C440.22 117.805 438.185 118.093 435.192 118.573C433.564 129.631 430.801 140.102 426.901 149.986C423.002 159.871 418.265 168.456 412.691 175.741C411.592 177.211 410.11 178.028 408.245 178.193C406.458 178.422 404.83 177.988 403.36 176.888ZM468.177 106.56C467.156 105.638 465.871 104.595 464.323 103.43C462.84 102.187 461.445 101.118 460.137 100.221C459.363 99.6387 458.854 98.7801 458.609 97.6452C458.437 96.5039 458.704 95.4324 459.41 94.4305C460.124 93.5003 461.015 92.9519 462.084 92.7854C463.219 92.5409 464.317 92.6971 465.378 93.2541C466.589 93.8702 468.04 94.7543 469.732 95.9062C471.495 97.0519 472.965 98.1511 474.142 99.2038C475.157 100.054 475.721 101.125 475.835 102.416C475.942 103.635 475.61 104.785 474.838 105.865C474.059 106.873 472.992 107.473 471.635 107.665C470.344 107.778 469.191 107.41 468.177 106.56ZM476.332 95.7583C475.246 94.9144 473.896 93.9492 472.282 92.8626C470.669 91.776 469.211 90.8203 467.91 89.9953C467.07 89.4911 466.493 88.6746 466.176 87.546C465.932 86.4111 466.124 85.31 466.753 84.2427C467.316 83.2534 468.129 82.6397 469.192 82.4015C470.321 82.0852 471.413 82.1697 472.467 82.655C473.743 83.1931 475.296 83.9959 477.125 85.0635C478.947 86.0594 480.476 87.0088 481.712 87.9118C482.792 88.684 483.425 89.7124 483.61 90.9971C483.796 92.2818 483.538 93.4609 482.838 94.5346C482.209 95.6019 481.22 96.2673 479.87 96.5308C478.591 96.788 477.412 96.5305 476.332 95.7583ZM522.415 152.412C519.662 155.618 517.153 156.273 514.89 154.376C512.621 152.408 512.827 149.824 515.508 146.624L535.031 123.329L511.735 103.806C508.458 101.059 507.803 98.5508 509.771 96.2813C511.668 94.0181 514.255 94.2599 517.533 97.0068L540.828 116.529L560.449 93.1169C563.196 89.8391 565.704 89.1845 567.974 91.1529C570.237 93.0495 569.995 95.6367 567.248 98.9145L547.726 122.21L570.913 141.742C574.191 144.489 574.882 146.994 572.985 149.257C571.154 151.442 568.567 151.201 565.223 148.532L541.937 129.117L522.415 152.412ZM616.59 152.462C615.082 153.39 613.406 153.646 611.562 153.231C609.784 152.737 608.428 151.7 607.493 150.12C606.559 148.54 606.303 146.864 606.725 145.092C607.219 143.314 608.22 141.96 609.728 141.032C619.548 135.18 628.133 128.424 635.481 120.766C642.894 113.029 648.751 104.852 653.051 96.2329C655.752 90.7909 653.803 88.3605 647.205 88.9419L617.835 91.5299C616.041 91.6878 614.443 91.1782 613.038 90.001C611.627 88.752 610.842 87.231 610.684 85.438C610.52 83.5732 611.026 81.9384 612.204 80.5337C613.381 79.1289 614.866 78.3475 616.659 78.1895L646.46 75.5637C652.915 74.9949 657.968 75.7423 661.619 77.8058C665.264 79.7975 667.407 82.789 668.047 86.7802C668.76 90.765 667.841 95.508 665.29 101.009C663.965 104.017 662.317 107.053 660.346 110.118C663.886 112.553 667.522 115.268 671.255 118.264C675.054 121.182 678.595 124.05 681.88 126.869C685.229 129.609 688.039 131.964 690.308 133.932C691.641 135.116 692.39 136.64 692.554 138.505C692.718 140.37 692.176 142.007 690.927 143.419C689.75 144.823 688.229 145.608 686.364 145.772C684.493 145.865 682.855 145.322 681.45 144.145C679.337 142.308 676.677 140.012 673.471 137.259C670.259 134.434 666.861 131.553 663.277 128.616C659.687 125.608 656.233 122.913 652.915 120.531C647.964 126.677 642.338 132.557 636.039 138.172C629.805 143.709 623.322 148.472 616.59 152.462ZM770.503 145.839C768.71 145.997 767.108 145.452 765.697 144.203C764.292 143.026 763.51 141.54 763.352 139.747L759.561 96.7141C755.324 101.135 750.932 105.425 746.383 109.584C741.835 113.744 737.258 117.58 732.653 121.094C731.157 122.165 729.494 122.565 727.663 122.293C725.903 122.014 724.452 121.13 723.309 119.641C722.238 118.145 721.838 116.481 722.11 114.65C722.383 112.819 723.267 111.368 724.762 110.297C729.034 107.102 733.445 103.424 737.993 99.265C742.613 95.0994 747.068 90.6954 751.357 86.053C755.718 81.4043 759.684 76.7903 763.256 72.2112C766.893 67.5539 769.871 63.2078 772.19 59.1727C773.133 57.5717 774.486 56.5129 776.247 55.9963C778.008 55.4797 779.69 55.693 781.291 56.6361C782.885 57.5075 783.944 58.8598 784.467 60.6929C784.984 62.4544 784.77 64.1356 783.827 65.7366C780.54 71.0857 776.486 76.7555 771.665 82.7457L776.585 138.581C776.743 140.374 776.233 141.973 775.056 143.378C773.885 144.855 772.367 145.675 770.503 145.839ZM842.31 100.698C840.517 100.856 838.882 100.35 837.405 99.1789C835.994 97.9299 835.21 96.4089 835.052 94.6159C834.887 92.7511 835.394 91.1163 836.571 89.7116C837.82 88.3005 839.341 87.516 841.134 87.358L908.159 81.4522C910.023 81.2879 911.658 81.7944 913.063 82.9716C914.468 84.1489 915.252 85.6699 915.416 87.5347C915.574 89.3277 915.068 90.9625 913.897 92.439C912.72 93.8437 911.199 94.6283 909.334 94.7926L842.31 100.698ZM974.687 124.053C973.028 124.922 971.31 125.11 969.532 124.616C967.832 124.187 966.515 123.183 965.58 121.603C964.646 120.023 964.426 118.344 964.92 116.566C965.407 114.716 966.444 113.359 968.031 112.497C977.203 107.496 984.773 101.951 990.742 95.8592C996.782 89.7615 1001.42 82.9201 1004.65 75.3349C1007.95 67.6717 1010.05 59.0664 1010.94 49.5191C1011.14 47.6228 1011.94 46.1062 1013.36 44.9693C1014.78 43.8325 1016.4 43.3644 1018.23 43.565C1020.04 43.6939 1021.52 44.4672 1022.66 45.8849C1023.87 47.2963 1024.37 48.9502 1024.18 50.8465C1023.41 60.9613 1021.11 70.56 1017.28 79.6429C1013.53 88.7194 1008.12 97.0384 1001.05 104.6C994.051 112.083 985.262 118.568 974.687 124.053ZM969.673 84.3802C968.087 85.2428 966.404 85.4272 964.626 84.9333C962.913 84.3615 961.59 83.2855 960.655 81.7054C959.034 78.8849 957.22 75.9367 955.214 72.8609C953.274 69.707 951.417 67.0879 949.643 65.0035C948.506 63.5858 947.963 61.9351 948.014 60.0514C948.065 58.1677 948.832 56.6184 950.315 55.4035C951.733 54.2667 953.347 53.7269 955.159 53.784C957.043 53.8349 958.557 54.605 959.7 56.0944C960.927 57.721 962.291 59.6608 963.79 61.9138C965.355 64.0889 966.891 66.3388 968.397 68.6636C969.902 70.9884 971.177 73.1528 972.221 75.1569C973.162 76.8088 973.349 78.5269 972.784 80.3115C972.29 82.0897 971.253 83.4459 969.673 84.3802ZM991.627 76.3743C989.878 77.0344 988.141 77.0068 986.416 76.2914C984.762 75.5698 983.572 74.3736 982.847 72.7028C981.487 69.5701 979.947 66.4532 978.228 63.3521C976.581 60.2447 975.044 57.5613 973.616 55.3019C972.61 53.7281 972.246 52.0616 972.525 50.3024C972.875 48.5368 973.798 47.1183 975.294 46.0469C976.861 44.9691 978.564 44.6023 980.401 44.9464C982.232 45.2187 983.651 46.1418 984.657 47.7155C986.331 50.3146 988.122 53.4094 990.028 56.9999C992.006 60.5841 993.727 64.1187 995.191 67.6037C995.923 69.3462 995.931 71.0801 995.216 72.8056C994.566 74.453 993.369 75.6426 991.627 76.3743ZM1071.84 117.987C1070.37 116.887 1069.52 115.444 1069.29 113.658C1069.05 111.799 1069.48 110.135 1070.58 108.665C1075.65 102.147 1079.82 94.9492 1083.1 87.0708C1086.45 79.1144 1088.84 70.6273 1090.29 61.6096C1086.29 62.1786 1082.54 62.7256 1079.05 63.2504C1075.62 63.6972 1073.37 64.0039 1072.3 64.1704C1070.51 64.4001 1068.88 63.9653 1067.41 62.8661C1065.94 61.6952 1065.08 60.2164 1064.85 58.4297C1064.62 56.5712 1065.05 54.9069 1066.15 53.4367C1067.25 51.9666 1068.73 51.1135 1070.59 50.8775C1071.37 50.7362 1072.87 50.5318 1075.09 50.2641C1077.3 49.9965 1079.88 49.6973 1082.81 49.3665C1085.81 48.9576 1088.81 48.5487 1091.81 48.1398C1092.2 42.6848 1092.25 37.079 1091.96 31.3223C1091.86 29.4512 1092.44 27.8459 1093.7 26.5066C1094.95 25.0955 1096.48 24.3827 1098.28 24.3682C1100.15 24.2756 1101.76 24.8569 1103.1 26.1122C1104.5 27.2894 1105.22 28.8168 1105.24 30.6942C1105.4 33.3542 1105.45 35.9879 1105.39 38.5952C1105.33 41.2024 1105.24 43.8487 1105.11 46.534L1108.21 46.044C1116.01 45.0682 1122.12 45.5056 1126.54 47.3562C1130.97 49.2067 1134.02 52.6602 1135.7 57.7168C1137.37 62.7733 1137.91 69.7008 1137.31 78.4993C1136.81 85.9161 1135.68 92.0144 1133.94 96.7942C1132.26 101.568 1130.02 105.271 1127.22 107.903C1124.48 110.457 1121.27 112.149 1117.58 112.98C1113.9 113.883 1109.84 114.168 1105.41 113.836C1103.59 113.707 1102.07 112.937 1100.87 111.526C1099.66 110.114 1099.12 108.5 1099.25 106.681C1099.44 104.785 1100.25 103.268 1101.66 102.131C1103.08 100.923 1104.69 100.419 1106.52 100.62C1108.92 100.841 1111.08 100.759 1113 100.373C1114.92 99.9877 1116.61 99.0439 1118.06 97.5422C1119.59 96.0341 1120.83 93.6843 1121.78 90.4928C1122.79 87.2233 1123.53 82.822 1123.98 77.289C1124.48 71.5344 1124.4 67.2776 1123.72 64.5183C1123.04 61.6873 1121.58 59.9005 1119.34 59.1577C1117.18 58.4086 1113.99 58.2921 1109.77 58.8085C1108.7 58.9033 1106.66 59.1909 1103.67 59.6715C1102.04 70.7291 1099.28 81.2001 1095.38 91.0845C1091.48 100.969 1086.74 109.554 1081.17 116.839C1080.07 118.309 1078.59 119.127 1076.72 119.291C1074.94 119.521 1073.31 119.086 1071.84 117.987ZM1200.78 104.782C1199.19 105.645 1197.47 105.797 1195.61 105.237C1193.83 104.743 1192.48 103.707 1191.54 102.126C1190.68 100.54 1190.5 98.8577 1190.99 97.0795C1191.48 95.2296 1192.51 93.8733 1194.1 93.0108C1204.91 86.9263 1213.85 80.0316 1220.9 72.3266C1227.96 64.6216 1232.91 56.4871 1235.77 47.9231C1236.97 44.276 1236.95 41.5675 1235.71 39.7975C1234.47 38.0275 1231.73 37.3289 1227.5 37.7018L1186.83 41.2851C1185.04 41.4431 1183.4 40.9366 1181.93 39.7657C1180.52 38.5884 1179.74 37.1033 1179.58 35.3102C1179.42 33.4454 1179.93 31.8107 1181.1 30.4059C1182.35 28.9949 1183.87 28.2103 1185.67 28.0523L1226.98 24.4122C1233.51 23.8371 1238.67 24.6108 1242.47 26.7334C1246.34 28.7779 1248.78 31.9234 1249.81 36.1699C1250.9 40.3383 1250.47 45.3629 1248.53 51.2439C1245.19 61.7295 1239.44 71.5599 1231.29 80.7351C1223.21 89.9039 1213.04 97.9196 1200.78 104.782ZM1304.38 88.281C1302.8 88.42 1301.39 87.9663 1300.14 86.9199C1298.88 85.8017 1298.19 84.4537 1298.05 82.8758C1297.9 81.2262 1298.36 79.8129 1299.41 78.636C1300.46 77.3873 1301.77 76.6935 1303.35 76.5544L1327.66 74.412L1326.08 56.4457L1311.34 57.7443C1309.76 57.8834 1308.35 57.4297 1307.1 56.3832C1305.84 55.2651 1305.15 53.9171 1305.01 52.3392C1304.86 50.6896 1305.32 49.2763 1306.37 48.0993C1307.41 46.8507 1308.73 46.1568 1310.3 46.0178L1351.19 42.4156C1352.84 42.2702 1354.28 42.7208 1355.53 43.7672C1356.78 44.7419 1357.47 46.0541 1357.61 47.7037C1357.75 49.2816 1357.3 50.7307 1356.26 52.0511C1355.22 53.2998 1353.87 53.9968 1352.22 54.1421L1337.7 55.4219L1339.28 73.3883L1363.81 71.2269C1365.46 71.0816 1366.87 71.5353 1368.05 72.588C1369.29 73.5627 1369.98 74.8749 1370.13 76.5245C1370.27 78.1024 1369.82 79.5515 1368.78 80.8719C1367.8 82.1143 1366.49 82.8081 1364.84 82.9535L1304.38 88.281Z" fill="#F45998"/>
</g>
<defs>
<filter id="filter0_d_65_164" x="0.716797" y="0.786133" width="1382.9" height="224.705" filterUnits="userSpaceOnUse" color-interpolation-filters="sRGB">
<feFlood flood-opacity="0" result="BackgroundImageFix"/>
<feColorMatrix in="SourceAlpha" type="matrix" values="0 0 0 0 0 0 0 0 0 0 0 0 0 0 0 0 0 0 127 0" result="hardAlpha"/>
<feOffset dx="8" dy="8"/>
<feGaussianBlur stdDeviation="2"/>
<feComposite in2="hardAlpha" operator="out"/>
<feColorMatrix type="matrix" values="0 0 0 0 0.957806 0 0 0 0 0.348577 0 0 0 0 0.596077 0 0 0 0.25 0"/>
<feBlend mode="normal" in2="BackgroundImageFix" result="effect1_dropShadow_65_164"/>
<feBlend mode="normal" in="SourceGraphic" in2="effect1_dropShadow_65_164" result="shape"/>
</filter>
</defs>
</svg>
