<svg width="1592" height="293" viewBox="0 0 1592 293" fill="none" xmlns="http://www.w3.org/2000/svg">
<g filter="url(#filter0_d_84_15)">
<path d="M22.4027 268.043C21.0016 268.182 19.9321 267.773 19.1943 266.817C18.5139 265.791 18.2065 264.31 18.2721 262.374L18.6768 248.925L15.1421 249.275C11.3845 249.647 9.3701 248.464 9.09893 245.725C8.83407 243.05 10.2302 241.561 13.2872 241.259L19.0192 240.691L19.4514 228.493L15.9167 228.843C12.159 229.215 10.1446 228.032 9.87346 225.293C9.60229 222.555 10.9952 221.034 14.0523 220.731L19.7843 220.164L20.3138 206.027C20.5402 202.467 22.0864 200.546 24.9524 200.262C27.7547 199.984 29.0997 201.877 28.9875 205.94L28.4777 219.303L39.0819 218.253L39.6115 204.116C39.8378 200.557 41.384 198.635 44.25 198.351C47.0523 198.074 48.3973 199.966 48.2851 204.029L47.7754 217.392L51.3101 217.042C55.0677 216.67 57.0821 217.854 57.3533 220.592C57.6244 223.331 56.2315 224.851 53.1745 225.154L47.4425 225.722L47.0103 237.92L50.545 237.57C54.3026 237.198 56.3139 238.349 56.5788 241.024C56.8499 243.762 55.457 245.283 52.3999 245.586L46.7635 246.144L46.1478 260.386C45.9852 263.939 44.5027 265.855 41.7004 266.132C40.2992 266.271 39.2298 265.862 38.492 264.906C37.8116 263.88 37.5042 262.399 37.5697 260.464L37.9745 247.014L27.4659 248.055L26.8502 262.297C26.6875 265.85 25.205 267.765 22.4027 268.043ZM27.8082 239.821L38.2213 238.79L38.749 226.582L28.2404 227.623L27.8082 239.821ZM169.438 248.725C158.779 251.066 150.092 252.098 143.376 251.82C136.651 251.457 131.397 249.919 127.613 247.207C124.193 244.715 121.734 241.529 120.235 237.647C118.736 233.765 117.671 228.64 117.04 222.271L116.599 217.813L77.2392 221.71C75.1163 221.92 73.2191 221.379 71.5476 220.087C69.9526 218.701 69.05 216.947 68.8398 214.824C68.6296 212.701 69.1749 210.847 70.4755 209.26C71.8527 207.58 73.6028 206.635 75.7257 206.425L115.085 202.528L113.496 186.478L93.4979 188.458C91.3749 188.668 89.4777 188.127 87.8062 186.835C86.2113 185.45 85.3087 183.695 85.0985 181.572C84.8883 179.449 85.4335 177.595 86.7342 176.008C88.1114 174.328 89.8614 173.383 91.9844 173.173L145.101 167.914C147.224 167.703 149.083 168.291 150.677 169.677C152.349 170.969 153.29 172.677 153.5 174.799C153.71 176.922 153.127 178.824 151.75 180.504C150.449 182.09 148.737 182.989 146.614 183.199L129.036 184.939L130.625 200.989L166.928 197.394C169.051 197.184 170.91 197.772 172.505 199.157C174.176 200.45 175.117 202.157 175.327 204.28C175.537 206.403 174.954 208.305 173.577 209.984C172.276 211.571 170.564 212.469 168.441 212.68L132.139 216.274L132.58 220.732C133.017 225.148 133.537 228.227 134.138 229.968C134.815 231.616 135.892 232.967 137.369 234.021C138.744 234.914 140.564 235.548 142.831 235.924C145.098 236.3 148.099 236.303 151.836 235.933C155.564 235.478 160.324 234.621 166.116 233.361C168.298 232.888 170.306 233.247 172.139 234.437C173.964 235.543 175.113 237.187 175.586 239.369C176.051 241.467 175.692 243.475 174.51 245.393C173.32 247.226 171.629 248.336 169.438 248.725ZM296.815 236.112C286.156 238.454 277.469 239.486 270.753 239.207C264.029 238.844 258.774 237.307 254.99 234.594C251.57 232.103 249.111 228.917 247.612 225.035C246.113 221.153 245.048 216.027 244.417 209.659L243.976 205.2L204.616 209.098C202.493 209.308 200.596 208.767 198.925 207.475C197.33 206.089 196.427 204.335 196.217 202.212C196.007 200.089 196.552 198.234 197.853 196.648C199.23 194.968 200.98 194.023 203.103 193.812L242.462 189.915L240.873 173.866L220.875 175.846C218.752 176.056 216.855 175.515 215.183 174.223C213.588 172.837 212.686 171.083 212.476 168.96C212.265 166.837 212.811 164.982 214.111 163.396C215.488 161.716 217.239 160.771 219.361 160.561L272.478 155.301C274.601 155.091 276.46 155.679 278.055 157.064C279.726 158.356 280.667 160.064 280.877 162.187C281.087 164.31 280.504 166.211 279.127 167.891C277.826 169.478 276.114 170.376 273.991 170.586L256.413 172.327L258.002 188.376L294.305 184.782C296.428 184.572 298.287 185.159 299.882 186.545C301.553 187.837 302.494 189.545 302.704 191.668C302.914 193.791 302.331 195.692 300.954 197.372C299.653 198.959 297.941 199.857 295.818 200.067L259.516 203.662L259.957 208.12C260.395 212.536 260.914 215.614 261.515 217.355C262.193 219.003 263.27 220.354 264.746 221.409C266.121 222.302 267.941 222.936 270.208 223.312C272.475 223.688 275.476 223.69 279.213 223.321C282.941 222.866 287.701 222.008 293.493 220.749C295.676 220.276 297.683 220.634 299.516 221.825C301.341 222.93 302.49 224.574 302.963 226.757C303.428 228.855 303.069 230.863 301.887 232.78C300.697 234.613 299.006 235.724 296.815 236.112ZM352.708 230.321C350.746 231.287 348.699 231.404 346.569 230.671C344.523 229.931 343.017 228.579 342.051 226.617C341.085 224.654 340.973 222.65 341.713 220.605C342.446 218.474 343.793 216.926 345.755 215.96C352.313 212.91 358.859 209.303 365.393 205.14C372.011 200.969 378.261 196.535 384.141 191.836C390.098 187.045 395.452 182.227 400.203 177.383C405.031 172.446 408.899 167.776 411.807 163.372C413.082 161.53 414.769 160.377 416.867 159.912C419.049 159.439 421.019 159.844 422.775 161.128C424.608 162.318 425.761 164.005 426.235 166.188C426.7 168.285 426.294 170.255 425.019 172.096C421.958 176.687 417.78 181.688 412.484 187.1C407.181 192.428 401.194 197.78 394.523 203.156C387.852 208.533 380.936 213.591 373.773 218.331C366.611 223.07 359.589 227.067 352.708 230.321ZM358.693 179.049C355.197 176.652 351.311 174.207 347.034 171.715C342.748 169.138 338.9 167.075 335.488 165.526C333.502 164.522 332.153 163.027 331.442 161.039C330.722 158.967 330.822 156.942 331.741 154.964C332.745 152.978 334.241 151.63 336.228 150.918C338.292 150.114 340.317 150.213 342.303 151.217C344.739 152.434 347.505 153.96 350.603 155.798C353.777 157.541 356.823 159.298 359.742 161.067C362.747 162.827 365.212 164.341 367.138 165.608C368.971 166.799 370.124 168.485 370.597 170.668C371.147 172.757 370.827 174.718 369.636 176.551C368.446 178.384 366.764 179.58 364.589 180.138C362.492 180.603 360.526 180.24 358.693 179.049ZM469.135 227.925C467.378 226.641 466.353 224.942 466.057 222.827C465.754 220.628 466.244 218.65 467.528 216.894C473.445 209.105 478.298 200.521 482.085 191.142C485.949 181.67 488.681 171.581 490.279 160.875C485.549 161.601 481.116 162.297 476.98 162.964C472.921 163.537 470.258 163.93 468.993 164.141C466.879 164.436 464.943 163.941 463.187 162.657C461.422 161.289 460.392 159.547 460.097 157.433C459.793 155.233 460.283 153.255 461.567 151.499C462.851 149.742 464.55 148.717 466.665 148.421C467.675 148.236 469.493 147.97 472.117 147.624C474.741 147.279 477.79 146.891 481.263 146.462C484.813 145.939 488.362 145.416 491.912 144.893C492.3 138.423 492.286 131.779 491.868 124.96C491.734 122.744 492.402 120.834 493.873 119.23C495.335 117.542 497.136 116.678 499.276 116.638C501.492 116.504 503.402 117.172 505.005 118.643C506.685 120.02 507.549 121.821 507.598 124.046C507.824 127.196 507.919 130.316 507.882 133.407C507.845 136.498 507.766 139.593 507.644 142.692L511.325 142.199C520.547 140.942 527.794 141.383 533.065 143.519C538.336 145.655 541.996 149.709 544.045 155.68C546.094 161.651 546.82 169.854 546.224 180.289C545.723 189.085 544.468 196.327 542.458 202.014C540.449 207.701 537.842 212.118 534.638 215.265C531.425 218.327 527.641 220.374 523.284 221.406C518.935 222.522 514.129 222.912 508.865 222.576C506.708 222.447 504.905 221.553 503.455 219.896C502.004 218.239 501.344 216.332 501.473 214.176C501.679 211.926 502.573 210.122 504.153 208.765C505.81 207.315 507.721 206.697 509.886 206.911C512.739 207.143 515.299 207.018 517.567 206.537C519.919 206.046 521.95 204.902 523.658 203.104C525.452 201.297 526.889 198.496 527.971 194.702C529.13 190.814 529.942 185.589 530.407 179.026C530.846 172.208 530.647 167.168 529.81 163.907C529.049 160.552 527.34 158.449 524.683 157.597C522.111 156.737 518.329 156.64 513.335 157.306C512.062 157.432 509.654 157.799 506.113 158.407C504.325 171.532 501.184 183.977 496.69 195.741C492.195 207.505 486.691 217.74 480.179 226.446C478.895 228.202 477.149 229.189 474.941 229.408C472.827 229.703 470.891 229.209 469.135 227.925ZM545.05 143.747C543.828 142.668 542.292 141.448 540.443 140.087C538.669 138.634 537.002 137.384 535.441 136.338C534.516 135.658 533.901 134.647 533.597 133.305C533.378 131.954 533.68 130.681 534.505 129.485C535.338 128.373 536.388 127.712 537.653 127.501C538.995 127.197 540.298 127.368 541.562 128.014C543.005 128.729 544.736 129.758 546.756 131.101C548.86 132.437 550.617 133.72 552.025 134.953C553.238 135.948 553.921 137.209 554.072 138.738C554.215 140.181 553.836 141.548 552.934 142.838C552.025 144.043 550.767 144.767 549.162 145.012C547.634 145.163 546.263 144.742 545.05 143.747ZM554.576 130.842C553.278 129.855 551.666 128.729 549.74 127.462C547.814 126.195 546.074 125.081 544.521 124.12C543.52 123.533 542.824 122.573 542.435 121.239C542.131 119.897 542.344 118.59 543.076 117.317C543.731 116.137 544.687 115.4 545.944 115.104C547.277 114.714 548.572 114.801 549.828 115.362C551.347 115.983 553.197 116.915 555.378 118.157C557.551 119.314 559.376 120.419 560.852 121.474C562.142 122.375 562.905 123.586 563.141 125.106C563.377 126.626 563.087 128.027 562.271 129.308C561.539 130.581 560.375 131.382 558.779 131.712C557.267 132.033 555.866 131.743 554.576 130.842ZM665.444 151.74L671.222 125.732L699.521 122.93L680.978 203.335L670.654 204.358L645.198 174.345L624.567 208.921L614.242 209.943L578.861 134.877L613.69 131.428L624.636 156.346L641.181 128.706L645.161 128.312L665.444 151.74ZM727.071 84.0255C733.167 83.422 737.813 84.2599 741.012 86.5391C744.206 88.7769 745.978 91.8674 746.326 95.8106C746.716 99.7497 745.189 103.565 741.744 107.255C738.341 110.942 733.509 113.095 727.248 113.715C718.457 114.586 712.721 112.474 710.04 107.38C709.27 105.949 708.795 104.321 708.614 102.497C708.433 100.672 708.68 98.7217 709.354 96.6453C710.027 94.5688 711.157 92.6565 712.742 90.9084C716.241 86.9192 721.018 84.6249 727.071 84.0255ZM755.129 195.491L719.117 199.057L711.462 121.747L747.474 118.181L755.129 195.491ZM828.152 182.608C820.804 188.737 812.713 192.238 803.882 193.113C795.091 193.983 787.692 192.204 781.685 187.774C775.673 183.303 772.249 176.838 771.411 168.379L768.209 136.038L761.119 136.74L759.166 117.024L766.257 116.322L764.188 95.4238L801.005 87.9471L803.45 112.639L821.051 110.896L823.004 130.612L805.402 132.355L807.336 151.884C807.915 157.731 809.642 161.852 812.517 164.247C815.429 166.596 820.119 167.451 826.588 166.81L828.152 182.608ZM870.259 114.377C875.117 106.359 883.227 101.788 894.588 100.663C897.823 100.342 901.338 100.748 905.135 101.879C908.931 103.011 912.317 104.853 915.291 107.406C921.691 112.843 925.382 120.517 926.363 130.427L931.081 178.069L893.888 181.751L890.568 148.228C889.907 141.552 888.287 136.186 885.708 132.128C883.125 128.03 880.382 126.124 877.48 126.411C873.499 126.805 871.778 129.718 872.316 135.15L877.095 183.414L840.15 187.072L829.786 82.3967L866.73 78.7386L870.259 114.377ZM1048.07 174.589C1041.53 175.236 1036.2 175.121 1032.08 174.242C1028.05 173.355 1024.99 171.429 1022.89 168.463C1020.87 165.405 1019.59 161.115 1019.04 155.596L1010.58 70.1257C1010.35 67.748 1010.88 65.8084 1012.19 64.3067C1013.59 62.7967 1015.34 61.9366 1017.47 61.7264C1019.59 61.5161 1021.44 62.0189 1023.02 63.2347C1024.68 64.442 1025.63 66.2345 1025.87 68.6122L1029.17 101.985C1032.97 98.7791 1036.88 95.3908 1040.9 91.82C1044.92 88.2492 1048.13 85.1446 1050.52 82.5063C1052.07 80.8096 1053.9 79.8137 1056.02 79.5186C1058.22 79.215 1060.21 79.8326 1061.99 81.3712C1063.58 82.7567 1064.49 84.511 1064.7 86.634C1064.99 88.7485 1064.32 90.6583 1062.69 92.3634C1060.12 94.9337 1056.93 97.8642 1053.14 101.155C1049.34 104.361 1045.46 107.533 1041.48 110.671C1037.59 113.8 1034.04 116.552 1030.85 118.926L1034.15 152.299C1034.5 155.781 1035.53 157.994 1037.25 158.938C1039.06 159.873 1042.22 160.119 1046.72 159.673C1050.45 159.303 1053.06 158.316 1054.53 156.713C1056.07 155.016 1057.09 152.3 1057.58 148.565C1057.86 146.221 1058.89 144.49 1060.67 143.371C1062.52 142.159 1064.58 141.783 1066.86 142.244C1069.12 142.619 1070.76 143.572 1071.77 145.101C1072.78 146.631 1073.18 148.52 1072.98 150.77C1072.37 158.462 1070.14 164.128 1066.3 167.767C1062.55 171.482 1056.47 173.756 1048.07 174.589ZM1000.27 181.636C998.148 181.847 996.251 181.306 994.58 180.013C992.917 178.806 991.967 177.013 991.732 174.636L989.676 153.873C987.161 155.323 984.443 156.878 981.52 158.54C978.589 160.116 975.697 161.646 972.842 163.129C970.073 164.604 967.584 165.879 965.375 166.955C963.081 168.04 960.958 168.25 959.006 167.586C957.045 166.837 955.582 165.481 954.616 163.519C953.735 161.548 953.631 159.629 954.303 157.762C955.052 155.801 956.535 154.325 958.753 153.334C960.307 152.579 962.312 151.609 964.767 150.423C967.299 149.143 969.949 147.766 972.719 146.291C975.573 144.808 978.347 143.376 981.04 141.994C983.724 140.528 986.086 139.265 988.125 138.206L985.375 110.438L958.244 113.124C956.121 113.334 954.266 112.789 952.68 111.488C951.093 110.188 950.195 108.476 949.985 106.353C949.774 104.23 950.32 102.375 951.62 100.789C952.913 99.1172 954.62 98.1764 956.743 97.9662L983.874 95.2797L981.693 73.2435C981.457 70.8658 982.032 68.8795 983.418 67.2845C984.803 65.6896 986.558 64.787 988.681 64.5768C990.888 64.3582 992.828 64.895 994.5 66.1872C996.171 67.4795 997.124 69.3145 997.36 71.6922L1007.4 173.084C1007.63 175.462 1007.06 177.406 1005.66 178.916C1004.28 180.511 1002.48 181.418 1000.27 181.636ZM1091.06 167.116C1088.88 167.674 1086.97 167.435 1085.33 166.397C1083.68 165.36 1082.55 163.928 1081.94 162.102C1081.41 160.182 1081.62 158.361 1082.56 156.638C1083.59 154.907 1085.15 153.809 1087.25 153.344C1089.76 152.752 1092.66 152.08 1095.93 151.327C1099.19 150.49 1102.58 149.64 1106.09 148.777L1104.89 136.677L1089.1 138.24C1087.32 138.417 1085.68 137.936 1084.2 136.796C1082.8 135.649 1082.01 134.141 1081.82 132.273C1081.64 130.405 1082.12 128.77 1083.26 127.371C1084.5 125.962 1086 125.17 1087.79 124.993L1103.58 123.429L1102.62 113.749C1097.26 114.109 1092.89 113.726 1089.52 112.602C1086.23 111.47 1083.71 109.404 1081.96 106.405C1080.21 103.406 1079.07 99.2741 1078.55 94.0091L1077.37 82.1631C1076.83 76.6434 1077.16 72.2369 1078.38 68.9436C1079.67 65.5569 1081.99 63.0119 1085.34 61.3085C1088.69 59.605 1093.29 58.4632 1099.15 57.8831L1108.7 56.9371C1114.56 56.3569 1119.3 56.5738 1122.92 57.5878C1126.53 58.6017 1129.27 60.6465 1131.11 63.722C1132.95 66.7126 1134.15 70.9678 1134.69 76.4875L1135.87 88.3335C1136.65 96.2309 1135.58 101.953 1132.68 105.499C1129.77 109.046 1124.34 111.341 1116.38 112.387L1117.34 122.067L1132.5 120.566C1134.37 120.381 1136 120.863 1137.4 122.01C1138.8 123.158 1139.59 124.666 1139.78 126.534C1139.96 128.402 1139.48 130.036 1138.33 131.436C1137.19 132.836 1135.68 133.629 1133.81 133.814L1118.65 135.314L1119.63 145.25C1122.56 144.446 1125.36 143.697 1128.03 143.004C1130.7 142.225 1133.07 141.518 1135.15 140.884C1137.15 140.257 1138.83 140.39 1140.21 141.283C1141.57 142.091 1142.51 143.328 1143.02 144.992C1143.55 146.912 1143.38 148.601 1142.49 150.061C1141.69 151.512 1140.42 152.538 1138.68 153.139C1135.28 154.248 1131.45 155.442 1127.2 156.72C1123.04 157.99 1118.75 159.229 1114.32 160.439C1109.99 161.726 1105.82 162.953 1101.82 164.121C1097.82 165.289 1094.23 166.287 1091.06 167.116ZM1155.99 166.861C1153.87 167.071 1151.94 166.704 1150.22 165.76C1148.5 164.816 1147.43 163.121 1147.02 160.675C1146.61 158.314 1147.02 156.387 1148.24 154.894C1149.46 153.316 1151.34 152.358 1153.88 152.021C1156.58 151.582 1158.28 150.985 1158.97 150.23C1159.75 149.382 1160.03 147.896 1159.82 145.773L1156 107.178L1143.51 108.414C1141.82 108.582 1140.27 108.135 1138.88 107.072C1137.56 105.916 1136.82 104.446 1136.64 102.663C1136.47 100.964 1136.92 99.4195 1137.98 98.0281C1139.13 96.6282 1140.55 95.8441 1142.25 95.676L1167.98 93.1282C1166.06 91.9461 1163.84 90.6661 1161.3 89.2881C1158.75 87.8251 1156.22 86.4896 1153.7 85.2814C1151.26 83.9799 1149.14 82.9462 1147.35 82.1802C1145.73 81.3975 1144.53 80.1864 1143.77 78.5469C1143.01 76.9074 1143.05 75.1455 1143.89 73.2613C1144.66 71.4705 1145.91 70.232 1147.64 69.5459C1149.36 68.7749 1151.12 68.7724 1152.91 69.5383C1155.14 70.4321 1157.98 71.7382 1161.4 73.4567C1162.26 72.6 1163.35 71.5057 1164.68 70.1739C1166.09 68.8337 1167.31 67.6843 1168.33 66.7259C1169.42 65.674 1169.81 64.8635 1169.5 64.2943C1169.27 63.7167 1168.39 63.4611 1166.85 63.5276L1140.87 66.1005C1139.25 66.2603 1137.79 65.8046 1136.49 64.7334C1135.17 63.5774 1134.43 62.1926 1134.28 60.5792C1134.11 58.8808 1134.56 57.3784 1135.63 56.0718C1136.7 54.7652 1138.04 54.0321 1139.66 53.8723L1171.63 50.7066C1175.36 50.3366 1178.41 50.7641 1180.76 51.9891C1183.11 53.2141 1184.7 54.9436 1185.52 57.1775C1186.42 59.403 1186.49 61.84 1185.73 64.4884C1185.04 67.1285 1183.45 69.687 1180.96 72.1639C1179.71 73.4024 1178.42 74.6875 1177.09 76.0193C1175.84 77.2578 1174.59 78.4962 1173.34 79.7347L1176.6 81.47C1178.41 82.4058 1179.58 83.8334 1180.11 85.7529C1180.72 87.5791 1180.52 89.4002 1179.5 91.2162C1179.43 91.3945 1179.24 91.6703 1178.94 92.0436L1180.21 91.9175C1184.8 91.4634 1188.42 92.1335 1191.09 93.9277C1193.75 95.7219 1195.32 98.1815 1195.8 101.307C1196.28 104.432 1195.5 107.81 1193.46 111.443C1192.3 113.53 1190.94 115.851 1189.39 118.406C1187.84 120.875 1186.54 122.933 1185.5 124.579C1184.53 126.047 1183.13 127.043 1181.3 127.568C1179.46 128.093 1177.77 127.917 1176.23 127.041C1174.69 126.25 1173.62 124.941 1173.01 123.115C1172.4 121.289 1172.58 119.642 1173.55 118.174C1173.84 117.63 1174.36 116.807 1175.11 115.704C1175.85 114.516 1176.59 113.371 1177.34 112.268C1178.16 111.071 1178.72 110.201 1179.01 109.658C1181.08 106.281 1180.11 104.79 1176.12 105.185L1170.52 105.74L1174.52 146.118C1175.2 152.997 1174.02 158.001 1170.99 161.131C1167.95 164.261 1162.95 166.171 1155.99 166.861ZM1090.38 81.004L1099.29 80.1211L1098.31 70.1857C1095.76 70.4379 1093.88 70.9243 1092.67 71.6449C1091.44 72.2805 1090.69 73.2987 1090.4 74.6994C1090.11 76.1002 1090.1 78.1592 1090.37 80.8766L1090.38 81.004ZM1101.43 101.648L1100.44 91.7124L1091.53 92.5953L1091.54 92.7227C1091.8 95.3551 1092.21 97.3721 1092.78 98.7737C1093.34 100.09 1094.28 100.94 1095.61 101.324C1096.93 101.707 1098.87 101.815 1101.43 101.648ZM1115.18 100.286C1117.72 99.9485 1119.6 99.4621 1120.83 98.8265C1122.05 98.1909 1122.81 97.1727 1123.1 95.7719C1123.38 94.2863 1123.39 92.2272 1123.13 89.5948L1123.12 89.4674L1114.2 90.3503L1115.18 100.286ZM1113.05 78.759L1121.97 77.8761L1121.96 77.7487C1121.69 75.0313 1121.27 73.0143 1120.71 71.6977C1120.15 70.381 1119.21 69.531 1117.89 69.1476C1116.56 68.7642 1114.62 68.6562 1112.07 68.8235L1113.05 78.759ZM1297.66 74.1295C1294.86 73.3598 1291.93 73.1268 1288.86 73.4306C1282.56 74.0547 1277.29 76.8999 1273.06 81.9663C1268.87 86.9872 1267.09 92.6903 1267.72 99.0758C1268.15 103.347 1269.31 106.602 1271.2 108.843C1273.1 111.084 1275.48 112.062 1278.34 111.779C1281.2 111.496 1284.28 110.458 1287.58 108.666C1290.91 106.829 1295.69 103.11 1301.92 97.5108L1305.93 138C1297.45 142.441 1288.24 145.154 1278.29 146.139C1268.38 147.12 1259.05 146.118 1250.29 143.133C1236.38 138.355 1226.66 129.687 1221.15 117.128C1219.3 112.831 1218.09 108.01 1217.52 102.665C1216.99 97.3162 1217.15 92.1297 1217.99 87.1056C1218.83 82.0814 1220.31 77.371 1222.43 72.9741C1226.66 64.139 1233.11 56.9064 1241.76 51.2763C1250.46 45.642 1260.72 42.2606 1272.54 41.132C1281.53 40.241 1288.85 40.5425 1294.48 42.0364L1297.66 74.1295ZM1328.68 131.791C1325.06 129.01 1322.02 125.375 1319.56 120.886C1317.14 116.353 1315.67 111.37 1315.13 105.938C1314.59 100.506 1314.66 95.7467 1315.35 91.6594C1316.72 83.5263 1319.84 76.4977 1324.69 70.5737C1327 67.6654 1329.64 65.1431 1332.61 63.0067C1338.7 58.593 1345.34 56.031 1352.51 55.3207C1359.73 54.6063 1366.29 56.3644 1372.19 60.5949C1374.08 61.9567 1375.77 63.569 1377.25 65.432L1385.21 55.0354L1405.61 53.0154L1413.26 130.325L1392.86 132.345L1382.69 120.351C1376.88 131.059 1367.08 137.117 1353.28 138.525C1349.47 138.944 1345.31 138.603 1340.8 137.499C1336.34 136.434 1332.3 134.531 1328.68 131.791ZM1374.4 79.7827C1372.82 79.0597 1371 78.8009 1368.93 79.0062C1366.85 79.2114 1364.73 80.1754 1362.55 81.898C1360.42 83.5751 1358.55 85.6234 1356.94 88.0431C1353.38 93.4626 1351.85 98.7638 1352.36 103.947C1352.73 107.596 1354.1 110.056 1356.49 111.327C1358.7 112.49 1361.83 111.991 1365.89 109.831C1369.98 107.625 1373.55 104.948 1376.58 101.8L1374.4 79.7827ZM1477.89 35.1813C1475.8 34.802 1473.76 34.7109 1471.77 34.908C1468.16 35.2652 1465.51 36.5748 1463.8 38.8368C1462.14 41.0533 1461.36 43.9361 1461.46 47.4852L1479.06 45.7423L1481.01 65.4584L1463.41 67.2012L1469.11 124.795L1431.92 128.477L1426.22 70.884L1419.13 71.586L1417.17 51.87L1424.26 51.1679L1422.96 38.0446C1422.28 31.1616 1424.48 25.4381 1429.55 20.8742C1434.63 16.3102 1441.73 13.5766 1450.85 12.6734C1459.97 11.7287 1468.37 13.0325 1476.05 16.5848L1477.89 35.1813ZM1543.01 61.7687C1542.65 58.1199 1540.77 56.4638 1537.37 56.8005C1533.51 57.5596 1531.18 59.821 1530.38 63.5848C1529.97 65.3838 1529.76 67.4566 1529.74 69.8032C1529.76 72.1042 1529.67 74.5834 1529.47 77.2408L1542.79 72.8445L1543.03 63.2116L1543.01 61.7687ZM1537.42 90.8992C1537.42 90.8992 1536.28 91.0121 1534 91.2379C1532.92 91.3447 1531.88 91.4059 1530.87 91.4215C1531.36 96.3557 1534.26 98.7901 1539.57 98.7248C1541.04 98.7055 1542.45 98.6281 1543.82 98.4926C1547.35 98.1437 1551.68 96.8979 1556.83 94.7553C1562.02 92.6085 1566.55 89.5014 1570.41 85.4338L1576.19 104.395C1567.73 113.313 1554.15 118.698 1535.45 120.549C1524.72 121.613 1515.18 119.396 1506.85 113.898C1497.79 107.886 1492.67 98.8263 1491.47 86.7189C1490.57 77.5968 1492.12 69.1737 1496.13 61.4494C1499.87 54.38 1505.32 48.753 1512.48 44.5684C1519.64 40.3838 1527.58 37.8604 1536.29 36.9982C1547.57 35.8815 1556.33 37.5049 1562.58 41.8684C1568.88 46.2278 1572.36 52.0377 1573.04 59.2979C1573.76 66.5541 1570.93 73.3446 1564.57 79.6693C1558.2 85.994 1549.15 89.7373 1537.42 90.8992Z" fill="#F45998"/>
</g>
<defs>
<filter id="filter0_d_84_15" x="0.213867" y="0.827698" width="1591.39" height="291.257" filterUnits="userSpaceOnUse" color-interpolation-filters="sRGB">
<feFlood flood-opacity="0" result="BackgroundImageFix"/>
<feColorMatrix in="SourceAlpha" type="matrix" values="0 0 0 0 0 0 0 0 0 0 0 0 0 0 0 0 0 0 127 0" result="hardAlpha"/>
<feOffset dx="8" dy="8"/>
<feGaussianBlur stdDeviation="2"/>
<feComposite in2="hardAlpha" operator="out"/>
<feColorMatrix type="matrix" values="0 0 0 0 0.957806 0 0 0 0 0.348577 0 0 0 0 0.596077 0 0 0 0.25 0"/>
<feBlend mode="normal" in2="BackgroundImageFix" result="effect1_dropShadow_84_15"/>
<feBlend mode="normal" in="SourceGraphic" in2="effect1_dropShadow_84_15" result="shape"/>
</filter>
</defs>
</svg>
