<svg width="1925" height="113" viewBox="0 0 1925 113" fill="none" xmlns="http://www.w3.org/2000/svg">
<path d="M0 112.166C0 112.166 0 111.666 2.63712e-06 0H1925C1925 62.4151 1925 112 1925 112C1869.08 106.203 1878.2 98.5793 1827.92 70.5276C1673.24 11.1776 1508.35 111.649 1485 106.666C1441.35 112.149 1376.43 30.384 1242.78 66.5503C1081.69 125.381 953.928 110.139 884.164 85.1849C799.757 37.5284 752.052 66.5503 633.36 85.1849C552.102 99.0243 525.522 138.892 449 83.166C371.611 26.8078 337.5 115.666 245.5 61.166C202 35.397 96 80 67.5 94.429C36.5 107.241 0 112.166 0 112.166Z" fill="#EDCCBC"/>
</svg>
