<?xml version="1.0" encoding="UTF-8"?>
<svg id="_レイヤー_2" data-name="レイヤー 2" xmlns="http://www.w3.org/2000/svg" viewBox="0 0 288 288">
  <defs>
    <style>
      .cls-1 {
        fill: #bbefbe;
      }

      .cls-1, .cls-2, .cls-3 {
        stroke-width: 0px;
      }

      .cls-4 {
        stroke-width: 3.18px;
      }

      .cls-4, .cls-5, .cls-6, .cls-7, .cls-8 {
        stroke-linecap: round;
        stroke-linejoin: round;
      }

      .cls-4, .cls-5, .cls-6, .cls-7, .cls-8, .cls-9 {
        stroke: #000;
      }

      .cls-4, .cls-6, .cls-8 {
        fill: none;
      }

      .cls-5, .cls-7 {
        fill: #fff;
      }

      .cls-5, .cls-8 {
        stroke-width: 2px;
      }

      .cls-3 {
        fill: #f4bad2;
      }

      .cls-7 {
        stroke-width: 4.78px;
      }

      .cls-9 {
        fill: #edccbc;
        stroke-miterlimit: 10;
        stroke-width: 3px;
      }
    </style>
  </defs>
  <g id="_レイヤー_1-2" data-name="レイヤー 1">
    <g>
      <rect class="cls-9" x="1.5" y="1.5" width="285" height="285" rx="47.63" ry="47.63"/>
      <g>
        <line class="cls-4" x1="195.03" y1="100.55" x2="193.65" y2="105.92"/>
        <line class="cls-4" x1="197.35" y1="100.55" x2="195.97" y2="105.92"/>
        <line class="cls-4" x1="199.67" y1="101.13" x2="198.3" y2="106.5"/>
        <path class="cls-7" d="m40.69,137.82s-3.48-15.68,9.87-24.39"/>
        <path class="cls-5" d="m76.15,78.29c.32-.53.36-1.18.08-1.73-2.23-4.36-11.38-23.86.46-29.97,11.91-6.15,28.44,1.95,31.87,3.78.42.22.9.26,1.35.12,4.67-1.53,31.29-9.89,44.52-6.52.73.18,1.48-.08,1.92-.69,2.89-4.03,14.5-18.24,32.98-15.49,0,0,10.78-.28,5.99,29.96-.11.66.17,1.33.72,1.72,3.6,2.53,17.01,12.59,21.24,24.5.31.88,1.24,1.39,2.15,1.15,3.53-.95,11.7-3.01,14.01-2.42.55.14,1.14.02,1.57-.34,1.63-1.36,5.2-3.76,9.69-3.2,2.22.27,4.07,1.82,4.78,3.93h0c.16.47.5.86.96,1.07l.83.39c1.4.65,2.46,1.86,2.94,3.33l.34,1.07c.24.75.94,1.26,1.73,1.26h0c1.22,0,2.18.99,2.14,2.21-.13,3.61-1.56,10.69-10.31,13.81-.45.16-.82.48-1.03.9-2.65,5.52-20.72,43.66-17.73,51.47.03.08.05.15.07.24.35,1.95,4.99,27.07,15.45,32.87.13.07.27.12.41.16,1.18.28,7.04,1.8,10.8,5.24,2.74,2.51,2.66,6.86-.08,9.36h0c-.31.28-.51.67-.57,1.08l-.15,1.03c-.21,1.5-1.15,2.79-2.5,3.47l-.41.21c-.57.28-.95.84-1,1.48l-.02.2c-.3,3.64-3.16,6.54-6.8,6.88-3.07.29-6.38.14-7.75-1.52-.4-.49-1.05-.7-1.67-.62-5.35.66-27.42,2.92-48.54-1.88-.29-.07-.49.3-.26.5,7.2,6.29,17.25,10.23,23.89,13.41,11.57,5.55,13.9,10.78,13.85,19.42-.03,5.9-5.39,12.29-24.41,9.9,0,0-22.54-2.61-32.41-18.29,0,0-7.82-12.22-9.56-20.52-.23-1.09-1.39-1.7-2.43-1.29-4.81,1.94-16.32,6.79-18.73,9.55-.04.04-.07.08-.12.12-1.1.94-15.8,13.36-23.41,13.36h0c-.59,0-1.15.27-1.52.73-1.73,2.16-6.81,8.02-11.59,9.02-1.24.26-2.41-.62-2.59-1.87l-.05-.37c-.14-.98-1.04-1.67-2.03-1.55l-1.35.17c-.9.11-1.77-.38-2.12-1.22l-.54-1.27c-.34-.8-1.21-1.25-2.07-1.06l-.9.2c-1.8.4-3.63-.57-4.28-2.29-1.35-3.58-2.43-9.83,3.23-15.19.33-.31.55-.73.59-1.18.51-5.68,3.35-43.86-11.66-56.76-.01-.01-.03-.02-.04-.03-.88-.68-31.84-24.69-35.61-30.46-.33-.51-.88-.82-1.48-.84-2.51-.1-8.59-1.43-11.26-11.55-.47-1.78.69-3.58,2.51-3.88h0c.96-.16,1.63-1.05,1.51-2.02h0c-.22-1.76.64-3.48,2.18-4.36l.6-.34c.57-.32.92-.93.92-1.58h0c0-2.79,2.05-5.16,4.81-5.52,2.89-.39,6.72-.17,10.45,2.23.28.18.59.29.92.3l12.85.56c-.41,2.71-1.71-12.94,11.66-34.56Z"/>
        <path class="cls-5" d="m64.49,112.85s0,38.32,52.26,37.16"/>
        <path class="cls-5" d="m217.79,85.56s11.61,40.07-31.36,53.42"/>
        <path class="cls-5" d="m156.2,219.44c2.86-1.99,20.32-7.55,30.19-2.32"/>
        <path class="cls-8" d="m127.75,115.5s1.28,8.55,9.14,6.08c8.28-2.6,6.07-10.44,6.07-10.44,0,0,1.62,7.79,10.37,5.27,9.25-2.66,4.61-10.21,4.61-10.21"/>
        <ellipse class="cls-2" cx="141.44" cy="102.47" rx="11.09" ry="6.97" transform="translate(-21.77 40.29) rotate(-15.07)"/>
        <path class="cls-5" d="m87.72,227.82s16.26,16.26,24.39,15.1"/>
        <path class="cls-5" d="m70.3,90.9s39.78-25.37,63,2.5"/>
        <path class="cls-5" d="m145.5,90.5s7.82-30.72,57.33-22.33"/>
        <path class="cls-5" d="m234.05,83.82s12.77,1.16,13.94,21.48"/>
        <path class="cls-5" d="m244.21,193.27s7.87,15.51-7.39,23.14"/>
        <ellipse class="cls-3" cx="87.8" cy="125.87" rx="13.29" ry="8.41" transform="translate(-19.43 16.08) rotate(-9.42)"/>
        <ellipse class="cls-3" cx="201.61" cy="101.49" rx="13.29" ry="8.41" transform="translate(-13.9 34.38) rotate(-9.42)"/>
        <circle class="cls-2" cx="107.13" cy="106.5" r="12.19"/>
        <circle class="cls-2" cx="173.91" cy="91.41" r="12.19"/>
        <line class="cls-6" x1="92.25" y1="123.77" x2="90.87" y2="129.15"/>
        <line class="cls-6" x1="94.57" y1="123.77" x2="93.2" y2="129.15"/>
        <line class="cls-6" x1="96.9" y1="124.36" x2="95.52" y2="129.73"/>
        <path class="cls-5" d="m43.8,124.36s15.02,16.62,31.92,16.51"/>
        <path class="cls-5" d="m217.2,117.47s20.38-9.31,25.38-25.45"/>
        <line class="cls-6" x1="195.61" y1="102.87" x2="194.23" y2="108.25"/>
        <line class="cls-6" x1="197.93" y1="102.87" x2="196.55" y2="108.25"/>
        <line class="cls-6" x1="200.25" y1="103.45" x2="198.88" y2="108.83"/>
        <ellipse class="cls-1" cx="86.35" cy="61.93" rx="10.08" ry="11.72" transform="translate(-19.43 72.06) rotate(-41.12)"/>
        <ellipse class="cls-1" cx="183.07" cy="45.15" rx="11.72" ry="10.08" transform="translate(73.79 198.81) rotate(-68.43)"/>
        <path class="cls-8" d="m41.03,138.37s-3.48-15.68,9.87-24.39"/>
      </g>
    </g>
  </g>
</svg>