<svg width="218" height="249" viewBox="0 0 218 249" fill="none" xmlns="http://www.w3.org/2000/svg">
<path d="M42.759 74.2333C42.9056 73.7508 42.8257 73.215 42.5343 72.823C40.2388 69.7178 30.5834 55.6664 38.0298 48.581C45.5216 41.4499 58.6046 44.9702 61.3494 45.8157C61.6815 45.9192 62.0336 45.863 62.3297 45.6636C65.4118 43.5798 83.0299 31.9869 92.9944 32.2883C93.5414 32.3058 94.039 31.9529 94.25 31.3828C95.6576 27.6047 101.639 14.0403 115.25 12.8827C115.25 12.8827 122.885 10.6871 124.35 35.9421C124.382 36.4964 124.684 36.9845 125.139 37.1957C128.112 38.5822 139.287 44.2409 144.221 53.0673C144.588 53.7245 145.329 53.9612 145.936 53.5986C148.297 52.194 153.79 49.0417 155.527 49.0946C155.945 49.1081 156.341 48.9047 156.594 48.5309C157.536 47.1341 159.694 44.5545 162.981 44.1795C164.605 43.9956 166.176 44.9005 167.02 46.4801C167.208 46.8336 167.517 47.082 167.873 47.17L168.528 47.33C169.631 47.6007 170.584 48.3795 171.156 49.4784L171.574 50.2831C171.867 50.8448 172.448 51.1286 173.012 50.9842C173.877 50.7627 174.726 51.3861 174.89 52.3729C175.379 55.3072 175.502 61.2767 169.774 65.3882C169.481 65.5994 169.267 65.923 169.19 66.3042C168.192 71.2414 161.464 105.274 164.86 111.027C164.894 111.087 164.924 111.141 164.948 111.206C165.509 112.715 172.869 132.113 181.256 134.88C181.361 134.915 181.468 134.93 181.578 134.93C182.465 134.941 186.886 135.098 190.119 137.187C192.475 138.707 193.122 142.231 191.572 144.751C191.397 145.037 191.313 145.383 191.339 145.728L191.401 146.587C191.489 147.831 191.033 149.045 190.181 149.838L189.92 150.078C189.56 150.411 189.383 150.929 189.446 151.451L189.465 151.616C189.836 154.602 188.264 157.464 185.732 158.406C183.594 159.2 181.21 159.684 179.969 158.596C179.604 158.278 179.11 158.225 178.679 158.404C174.974 159.914 159.619 165.761 143.797 165.742C143.578 165.742 143.497 166.072 143.692 166.189C149.836 169.95 157.629 171.289 162.872 172.645C172.015 175.011 174.512 178.799 175.869 185.776C176.797 190.535 174.013 196.665 160.077 198.205C160.077 198.205 143.598 200.211 134.039 189.374C134.039 189.374 126.495 180.95 123.92 174.579C123.58 173.739 122.653 173.46 121.982 173.984C118.868 176.428 111.447 182.435 110.174 185.097C110.155 185.139 110.132 185.176 110.107 185.216C109.474 186.175 101.005 198.869 95.5832 200.26L95.578 200.261C95.157 200.369 94.7998 200.686 94.6089 201.124C93.7247 203.177 91.0512 208.833 87.8052 210.508C86.9661 210.942 85.9903 210.447 85.6613 209.472L85.5656 209.184C85.3087 208.418 84.5531 208.028 83.8715 208.307L82.9346 208.689C82.311 208.945 81.6152 208.703 81.2259 208.095L80.6342 207.171C80.2606 206.587 79.5704 206.386 78.9904 206.695L78.3809 207.021C77.1646 207.673 75.7018 207.228 74.9612 205.956C73.4204 203.319 71.6467 198.48 74.8177 193.125C75.0035 192.812 75.0904 192.441 75.0455 192.066C74.497 187.398 70.3632 156.105 57.588 148.443C57.5758 148.436 57.5662 148.43 57.5541 148.423C56.8147 148.032 30.8864 134.327 27.2753 130.366C26.9571 130.017 26.52 129.867 26.0845 129.957C24.283 130.331 19.7297 130.372 16.2018 122.703C15.5797 121.354 16.1175 119.687 17.3659 119.114C18.0266 118.812 18.3581 117.97 18.1159 117.21C17.676 115.83 18.0117 114.286 18.9666 113.296L19.34 112.91C19.6904 112.546 19.8429 111.997 19.7376 111.47C19.2884 109.225 20.3666 106.94 22.2741 106.139C24.2698 105.301 27.0328 104.776 30.0764 106.036C30.3027 106.13 30.5438 106.161 30.78 106.113L40.0293 104.218C40.1757 106.479 36.7277 94.1021 42.7622 74.2356L42.759 74.2333Z" fill="#EDCCBC"/>
<path d="M23.344 225.528C21.664 225.528 20.336 226.032 19.36 227.04C18.4 228.048 17.92 229.448 17.92 231.24C17.92 233 18.424 234.392 19.432 235.416C20.44 236.44 21.744 236.952 23.344 236.952C24.736 236.952 26.112 236.512 27.472 235.632L28.624 238.608C27.024 239.696 25.128 240.24 22.936 240.24C20.152 240.24 17.92 239.432 16.24 237.816C14.576 236.2 13.744 234.008 13.744 231.24C13.744 228.44 14.552 226.24 16.168 224.64C17.8 223.04 20.056 222.24 22.936 222.24C25.128 222.24 27.024 222.784 28.624 223.872L27.472 226.848C26.112 225.968 24.736 225.528 23.344 225.528ZM36.7184 227.28C38.7184 227.28 40.1424 227.664 40.9904 228.432C41.8544 229.184 42.2864 230.424 42.2864 232.152V236.64C42.2864 237.792 42.4064 238.912 42.6464 240H38.9984C38.8704 239.28 38.7904 238.696 38.7584 238.248H38.7104C38.2784 238.856 37.6944 239.344 36.9584 239.712C36.2384 240.064 35.4784 240.24 34.6784 240.24C33.4784 240.24 32.5184 239.904 31.7984 239.232C31.0784 238.56 30.7184 237.64 30.7184 236.472C30.7184 235.096 31.3024 233.992 32.4704 233.16C33.6544 232.328 35.3504 231.912 37.5584 231.912H38.4464V231.864C38.4464 231.16 38.3024 230.672 38.0144 230.4C37.7424 230.128 37.2544 229.992 36.5504 229.992C34.9184 229.992 33.3584 230.352 31.8704 231.072L31.3664 228.36C32.9824 227.64 34.7664 227.28 36.7184 227.28ZM34.2224 236.112C34.2224 236.544 34.3504 236.88 34.6064 237.12C34.8784 237.36 35.2384 237.48 35.6864 237.48C36.4864 237.48 37.1424 237.232 37.6544 236.736C38.1824 236.24 38.4464 235.608 38.4464 234.84V234.264H37.5584C36.4704 234.264 35.6384 234.432 35.0624 234.768C34.5024 235.104 34.2224 235.552 34.2224 236.112ZM44.854 230.712V228H47.734V227.232C47.734 225.6 48.158 224.36 49.006 223.512C49.87 222.664 51.102 222.24 52.702 222.24C53.726 222.24 54.71 222.36 55.654 222.6L55.102 225.48C54.526 225.24 53.934 225.12 53.326 225.12C52.702 225.12 52.262 225.272 52.006 225.576C51.766 225.88 51.646 226.432 51.646 227.232V228H55.414V230.712H51.646V240H47.734V230.712H44.854ZM60.6844 232.656H65.6284C65.6124 230.816 64.7964 229.896 63.1804 229.896C62.4444 229.896 61.8604 230.136 61.4284 230.616C60.9964 231.08 60.7484 231.76 60.6844 232.656ZM60.7084 235.032C60.8204 235.816 61.1484 236.432 61.6924 236.88C62.2524 237.312 62.9724 237.528 63.8524 237.528C65.0364 237.528 66.1964 237.24 67.3324 236.664L68.1724 239.28C66.7484 239.92 65.1884 240.24 63.4924 240.24C61.5084 240.24 59.9084 239.656 58.6924 238.488C57.4924 237.32 56.8924 235.744 56.8924 233.76C56.8924 231.76 57.4524 230.184 58.5724 229.032C59.6924 227.864 61.1964 227.28 63.0844 227.28C65.0204 227.28 66.5244 227.84 67.5964 228.96C68.6684 230.064 69.2044 231.648 69.2044 233.712C69.2044 234.208 69.1724 234.648 69.1084 235.032H60.7084ZM87.8674 225.528C86.1874 225.528 84.8594 226.032 83.8834 227.04C82.9234 228.048 82.4434 229.448 82.4434 231.24C82.4434 233 82.9474 234.392 83.9554 235.416C84.9634 236.44 86.2674 236.952 87.8674 236.952C89.2594 236.952 90.6354 236.512 91.9954 235.632L93.1474 238.608C91.5474 239.696 89.6514 240.24 87.4594 240.24C84.6754 240.24 82.4434 239.432 80.7634 237.816C79.0994 236.2 78.2674 234.008 78.2674 231.24C78.2674 228.44 79.0754 226.24 80.6914 224.64C82.3234 223.04 84.5794 222.24 87.4594 222.24C89.6514 222.24 91.5474 222.784 93.1474 223.872L91.9954 226.848C90.6354 225.968 89.2594 225.528 87.8674 225.528ZM101.242 227.28C103.242 227.28 104.666 227.664 105.514 228.432C106.378 229.184 106.81 230.424 106.81 232.152V236.64C106.81 237.792 106.93 238.912 107.17 240H103.522C103.394 239.28 103.314 238.696 103.282 238.248H103.234C102.802 238.856 102.218 239.344 101.482 239.712C100.762 240.064 100.002 240.24 99.2018 240.24C98.0018 240.24 97.0418 239.904 96.3218 239.232C95.6018 238.56 95.2418 237.64 95.2418 236.472C95.2418 235.096 95.8258 233.992 96.9938 233.16C98.1778 232.328 99.8738 231.912 102.082 231.912H102.97V231.864C102.97 231.16 102.826 230.672 102.538 230.4C102.266 230.128 101.778 229.992 101.074 229.992C99.4418 229.992 97.8818 230.352 96.3938 231.072L95.8898 228.36C97.5058 227.64 99.2898 227.28 101.242 227.28ZM98.7458 236.112C98.7458 236.544 98.8738 236.88 99.1298 237.12C99.4018 237.36 99.7618 237.48 100.21 237.48C101.01 237.48 101.666 237.232 102.178 236.736C102.706 236.24 102.97 235.608 102.97 234.84V234.264H102.082C100.994 234.264 100.162 234.432 99.5858 234.768C99.0258 235.104 98.7458 235.552 98.7458 236.112ZM110.092 227.52H113.572L113.644 229.2H113.692C114.62 227.92 115.716 227.28 116.98 227.28C117.748 227.28 118.372 227.424 118.852 227.712C119.332 228 119.764 228.496 120.148 229.2H120.196C121.316 227.92 122.572 227.28 123.964 227.28C125.324 227.28 126.308 227.656 126.916 228.408C127.54 229.16 127.852 230.44 127.852 232.248V240H124.156V232.968C124.156 231.848 124.044 231.104 123.82 230.736C123.612 230.368 123.22 230.184 122.644 230.184C122.148 230.184 121.724 230.448 121.372 230.976C121.02 231.488 120.844 232.152 120.844 232.968V240H117.148V232.968C117.148 231.848 117.044 231.104 116.836 230.736C116.628 230.368 116.236 230.184 115.66 230.184C115.164 230.184 114.74 230.448 114.388 230.976C114.036 231.488 113.86 232.152 113.86 232.968V240H110.092V227.52ZM139.64 233.76C139.64 232.592 139.424 231.712 138.992 231.12C138.56 230.528 137.96 230.232 137.192 230.232C136.456 230.232 135.864 230.536 135.416 231.144C134.968 231.736 134.744 232.568 134.744 233.64V233.88C134.744 234.968 134.968 235.808 135.416 236.4C135.864 236.992 136.456 237.288 137.192 237.288C137.912 237.288 138.496 236.984 138.944 236.376C139.408 235.752 139.64 234.88 139.64 233.76ZM143.312 233.76C143.312 235.792 142.848 237.384 141.92 238.536C140.992 239.672 139.8 240.24 138.344 240.24C136.888 240.24 135.704 239.664 134.792 238.512H134.744V245.28H130.904V227.52H134.456L134.552 229.248H134.6C135.608 227.936 136.856 227.28 138.344 227.28C139.864 227.28 141.072 227.84 141.968 228.96C142.864 230.08 143.312 231.68 143.312 233.76ZM151.164 227.28C153.164 227.28 154.588 227.664 155.436 228.432C156.3 229.184 156.732 230.424 156.732 232.152V236.64C156.732 237.792 156.852 238.912 157.092 240H153.444C153.316 239.28 153.236 238.696 153.204 238.248H153.156C152.724 238.856 152.14 239.344 151.404 239.712C150.684 240.064 149.924 240.24 149.124 240.24C147.924 240.24 146.964 239.904 146.244 239.232C145.524 238.56 145.164 237.64 145.164 236.472C145.164 235.096 145.748 233.992 146.916 233.16C148.1 232.328 149.796 231.912 152.004 231.912H152.892V231.864C152.892 231.16 152.748 230.672 152.46 230.4C152.188 230.128 151.7 229.992 150.996 229.992C149.364 229.992 147.804 230.352 146.316 231.072L145.812 228.36C147.428 227.64 149.212 227.28 151.164 227.28ZM148.668 236.112C148.668 236.544 148.796 236.88 149.052 237.12C149.324 237.36 149.684 237.48 150.132 237.48C150.932 237.48 151.588 237.232 152.1 236.736C152.628 236.24 152.892 235.608 152.892 234.84V234.264H152.004C150.916 234.264 150.084 234.432 149.508 234.768C148.948 235.104 148.668 235.552 148.668 236.112ZM160.014 227.52H163.566L163.662 229.248H163.71C164.174 228.64 164.742 228.16 165.414 227.808C166.102 227.456 166.806 227.28 167.526 227.28C169.03 227.28 170.126 227.72 170.814 228.6C171.502 229.48 171.846 230.984 171.846 233.112V240H168.054V233.52C168.054 232.224 167.918 231.36 167.646 230.928C167.374 230.48 166.894 230.256 166.206 230.256C165.614 230.256 165.07 230.576 164.574 231.216C164.094 231.856 163.854 232.6 163.854 233.448V240H160.014V227.52ZM177.849 232.656H182.793C182.777 230.816 181.961 229.896 180.345 229.896C179.609 229.896 179.025 230.136 178.593 230.616C178.161 231.08 177.913 231.76 177.849 232.656ZM177.873 235.032C177.985 235.816 178.313 236.432 178.857 236.88C179.417 237.312 180.137 237.528 181.017 237.528C182.201 237.528 183.361 237.24 184.497 236.664L185.337 239.28C183.913 239.92 182.353 240.24 180.657 240.24C178.673 240.24 177.073 239.656 175.857 238.488C174.657 237.32 174.057 235.744 174.057 233.76C174.057 231.76 174.617 230.184 175.737 229.032C176.857 227.864 178.361 227.28 180.249 227.28C182.185 227.28 183.689 227.84 184.761 228.96C185.833 230.064 186.369 231.648 186.369 233.712C186.369 234.208 186.337 234.648 186.273 235.032H177.873ZM189.418 240V222H193.474V240H189.418ZM197.364 240V222H201.42V240H197.364ZM210.578 227.28C212.578 227.28 214.002 227.664 214.85 228.432C215.714 229.184 216.146 230.424 216.146 232.152V236.64C216.146 237.792 216.266 238.912 216.506 240H212.858C212.73 239.28 212.65 238.696 212.618 238.248H212.57C212.138 238.856 211.554 239.344 210.818 239.712C210.098 240.064 209.338 240.24 208.538 240.24C207.338 240.24 206.378 239.904 205.658 239.232C204.938 238.56 204.578 237.64 204.578 236.472C204.578 235.096 205.162 233.992 206.33 233.16C207.514 232.328 209.21 231.912 211.418 231.912H212.306V231.864C212.306 231.16 212.162 230.672 211.874 230.4C211.602 230.128 211.114 229.992 210.41 229.992C208.778 229.992 207.218 230.352 205.73 231.072L205.226 228.36C206.842 227.64 208.626 227.28 210.578 227.28ZM208.082 236.112C208.082 236.544 208.21 236.88 208.466 237.12C208.738 237.36 209.098 237.48 209.546 237.48C210.346 237.48 211.002 237.232 211.514 236.736C212.042 236.24 212.306 235.608 212.306 234.84V234.264H211.418C210.33 234.264 209.498 234.432 208.922 234.768C208.362 235.104 208.082 235.552 208.082 236.112Z" fill="#F45998"/>
</svg>
