<svg width="560" height="556" viewBox="0 0 560 556" fill="none" xmlns="http://www.w3.org/2000/svg">
<path d="M99.3098 120.29C97.8895 122.011 96.482 123.765 95.1114 125.514C95.1079 125.519 95.1043 125.524 95.1007 125.53C95.1003 125.53 95.0998 125.529 95.0994 125.529C89.5409 121.479 77.6396 110.109 86.5951 97.5337C90.4063 98.8041 96.5719 107.554 97.3003 111.238C98.9657 117.662 98.0825 120.996 95.1114 125.514C96.482 123.765 97.8895 122.011 99.3098 120.29C100.347 119.033 101.391 117.794 102.432 116.589C105.971 112.495 109.479 108.794 112.585 106.109C108.139 101.107 100.935 87.3389 111.606 78.9543C116.926 81.8921 126.279 89.7208 121.134 97.5337C118.999 100.775 117.611 102.379 116.734 103.016C118.497 101.967 120.001 101.507 121.134 101.821C122.328 102.153 123.521 102.124 124.69 101.821C126.99 101.226 129.196 99.5732 131.141 97.5337C133.882 94.6582 136.103 91.0141 137.331 88.4822C140.666 83.3213 149.86 73.7617 159.96 76.8106C170.059 79.8595 159.563 85.8621 153.052 88.4822H137.331C136.103 91.0141 133.882 94.6582 131.141 97.5337C137.969 98.1689 153.052 101.297 153.052 108.729C151.146 111.111 145.334 115.398 137.331 113.493C129.328 111.587 125.569 104.918 124.69 101.821C123.521 102.124 122.328 102.153 121.134 101.821C120.001 101.507 118.497 101.967 116.734 103.016C116.594 103.118 116.466 103.195 116.351 103.251C115.19 103.981 113.925 104.95 112.585 106.109C109.479 108.794 105.971 112.495 102.432 116.589C111.606 113.493 128.28 119.543 130.185 127.546C128.2 131.04 121.705 136.979 111.606 132.787C101.506 128.595 98.5952 122.354 99.3098 120.29Z" fill="#F4BAD2"/>
<path d="M84.4514 139.933C93.8204 126.435 114.274 99.9157 121.134 101.821C122.328 102.153 123.521 102.124 124.69 101.821M137.331 88.4822C140.666 83.3213 149.86 73.7617 159.96 76.8106C170.059 79.8595 159.563 85.8621 153.052 88.4822H137.331ZM137.331 88.4822C135.233 92.8099 130.232 100.387 124.69 101.821M112.585 106.109C108.139 101.107 100.935 87.3389 111.606 78.9543C116.926 81.8921 126.279 89.7208 121.134 97.5337C115.989 105.347 115.179 103.647 115.417 101.821M131.141 97.5337C137.969 98.1689 153.052 101.297 153.052 108.729C151.146 111.111 145.334 115.398 137.331 113.493C129.328 111.587 125.569 104.918 124.69 101.821M102.432 116.589C111.606 113.493 128.28 119.543 130.185 127.546C128.2 131.04 121.705 136.979 111.606 132.787C101.506 128.595 98.5952 122.354 99.3098 120.29M95.1007 125.53C89.5428 121.481 77.6389 110.11 86.5951 97.5337C90.4063 98.8041 96.5719 107.554 97.3003 111.238C98.9677 117.669 98.0804 121.004 95.1007 125.53Z" stroke="white" stroke-width="3"/>
<path d="M44.3124 281.825C44.7602 284.011 45.2425 286.208 45.7427 288.372C45.7447 288.378 45.7467 288.385 45.7487 288.391C45.7482 288.391 45.7477 288.391 45.7471 288.391C39.1049 290.175 22.7837 292.301 18.6176 277.435C21.9991 275.266 32.6807 275.96 36.0054 277.706C42.0509 280.443 44.0918 283.223 45.7427 288.372C45.2425 286.208 44.7602 284.011 44.3124 281.825C43.9853 280.228 43.6766 278.638 43.3927 277.071C42.4278 271.746 41.7492 266.692 41.6091 262.589C34.9241 262.909 19.6848 259.873 19.8581 246.303C25.4846 244.007 37.4503 241.641 40.3014 250.551C41.4841 254.247 41.8611 256.335 41.8065 257.418C42.0969 255.387 42.6825 253.927 43.6387 253.243C44.647 252.521 45.373 251.575 45.8713 250.475C46.8518 248.311 46.9505 245.556 46.5839 242.762C46.067 238.823 44.6251 234.806 43.425 232.261C41.5015 226.425 39.8331 213.267 48.5469 207.32C57.2607 201.373 55.343 213.312 53.2949 220.024L43.425 232.261C44.6251 234.806 46.067 238.823 46.5839 242.762C51.3652 237.846 63.2696 228.07 69.0542 232.736C69.7119 235.714 69.4003 242.93 62.8924 247.963C56.3845 252.996 48.8334 251.735 45.8713 250.475C45.373 251.575 44.647 252.521 43.6387 253.243C42.6825 253.927 42.0969 255.387 41.8065 257.418C41.7978 257.591 41.778 257.739 41.7486 257.863C41.5884 259.225 41.5486 260.818 41.6091 262.589C41.7492 266.692 42.4278 271.746 43.3927 277.071C46.7417 267.987 61.919 258.807 69.3449 262.348C70.8179 266.087 71.3631 274.871 61.7594 280.1C52.1556 285.329 45.4706 283.677 44.3124 281.825Z" fill="#F4BAD2"/>
<path d="M50.2736 305.722C45.6494 289.955 37.8486 257.386 43.6387 253.243C44.647 252.521 45.373 251.575 45.8713 250.475M43.425 232.261C41.5015 226.425 39.8331 213.267 48.5469 207.32C57.2607 201.373 55.343 213.312 53.2949 220.024L43.425 232.261ZM43.425 232.261C45.4762 236.611 48.2341 245.261 45.8713 250.475M41.6091 262.589C34.9241 262.909 19.6848 259.873 19.8581 246.303C25.4846 244.007 37.4503 241.641 40.3014 250.551C43.1525 259.461 41.3215 259.025 40.0496 257.693M46.5839 242.762C51.3652 237.846 63.2696 228.07 69.0542 232.736C69.7119 235.714 69.4003 242.93 62.8924 247.963C56.3845 252.996 48.8334 251.735 45.8713 250.475M43.3927 277.071C46.7417 267.987 61.919 258.807 69.3449 262.348C70.8179 266.087 71.3631 274.871 61.7594 280.1C52.1556 285.329 45.4706 283.677 44.3124 281.825M45.7487 288.391C39.1075 290.175 22.784 292.302 18.6176 277.435C21.9991 275.266 32.6807 275.96 36.0054 277.706C42.0581 280.446 44.0967 283.23 45.7487 288.391Z" stroke="white" stroke-width="3"/>
<path d="M104.014 435.599C105.838 436.884 107.695 438.154 109.542 439.387C109.548 439.39 109.554 439.393 109.56 439.396C109.559 439.397 109.559 439.397 109.559 439.398C105.944 445.249 95.5149 457.982 82.2931 450.011C83.2693 446.114 91.5239 439.3 95.1417 438.293C101.42 436.142 104.812 436.769 109.542 439.387C107.695 438.154 105.838 436.884 104.014 435.599C102.681 434.661 101.367 433.714 100.086 432.768C95.7344 429.551 91.7765 426.335 88.8622 423.443C84.2136 428.258 71.0349 436.49 61.8614 426.489C64.3852 420.961 71.4782 411.038 79.6605 415.573C83.0549 417.454 84.7602 418.716 85.4624 419.542C84.282 417.864 83.7082 416.4 83.9356 415.246C84.1755 414.03 84.0553 412.843 83.6646 411.7C82.8958 409.453 81.0795 407.379 78.8978 405.595C75.8217 403.081 72.0189 401.144 69.4008 400.113C64.0007 397.181 53.7681 388.742 56.0383 378.439C58.3086 368.137 65.0938 378.145 68.2026 384.437L69.4008 400.113C72.0189 401.144 75.8217 403.081 78.8978 405.595C79.0107 398.738 80.9802 383.461 88.3904 382.894C90.9106 384.613 95.6287 390.081 94.3387 398.206C93.0487 406.332 86.6851 410.588 83.6646 411.7C84.0553 412.843 84.1755 414.03 83.9356 415.246C83.7082 416.4 84.282 417.864 85.4624 419.542C85.5749 419.674 85.6616 419.795 85.7254 419.906C86.542 421.008 87.605 422.195 88.8622 423.443C91.7765 426.335 95.7344 429.551 100.086 432.768C96.2995 423.857 101.061 406.77 108.896 404.26C112.531 405.973 118.948 411.997 115.537 422.386C112.127 432.776 106.126 436.154 104.014 435.599Z" fill="#F4BAD2"/>
<path d="M124.732 448.917C110.56 440.604 82.5585 422.232 83.9356 415.246C84.1755 414.03 84.0553 412.843 83.6646 411.7M69.4008 400.113C64.0007 397.181 53.7681 388.742 56.0383 378.439C58.3086 368.137 65.0938 378.145 68.2026 384.437L69.4008 400.113ZM69.4008 400.113C73.8759 401.875 81.8118 406.284 83.6646 411.7M88.8622 423.443C84.2136 428.258 71.0349 436.49 61.8614 426.489C64.3852 420.961 71.4782 411.039 79.6605 415.573C87.8428 420.108 86.2104 421.045 84.3714 420.946M78.8978 405.595C79.0107 398.738 80.9802 383.461 88.3904 382.894C90.9107 384.613 95.6287 390.081 94.3387 398.206C93.0487 406.332 86.6851 410.588 83.6646 411.7M100.086 432.768C96.2995 423.857 101.061 406.77 108.896 404.26C112.531 405.973 118.948 411.997 115.537 422.386C112.127 432.776 106.126 436.154 104.014 435.599M109.56 439.396C105.946 445.247 95.5159 457.983 82.2931 450.011C83.2693 446.114 91.5239 439.3 95.1417 438.293C101.427 436.14 104.82 436.77 109.56 439.396Z" stroke="white" stroke-width="3"/>
<path d="M270.543 511.71C272.752 511.394 274.975 511.044 277.165 510.674C277.171 510.673 277.178 510.671 277.184 510.669C277.184 510.67 277.184 510.671 277.184 510.671C278.567 517.408 279.711 533.827 264.622 537.095C262.66 533.59 263.993 522.969 265.935 519.755C269.028 513.884 271.927 512.014 277.165 510.674C274.975 511.044 272.752 511.394 270.543 511.71C268.93 511.941 267.324 512.154 265.743 512.343C260.37 512.987 255.284 513.362 251.18 513.256C251.099 519.948 247.156 534.978 233.62 533.992C231.665 528.238 230.021 516.152 239.086 513.84C242.846 512.881 244.953 512.63 246.03 512.749C244.02 512.337 242.599 511.665 241.973 510.67C241.313 509.62 240.411 508.839 239.344 508.275C237.242 507.167 234.498 506.903 231.687 507.102C227.724 507.382 223.628 508.581 221.016 509.626C215.075 511.196 201.841 512.074 196.426 503.019C191.012 493.965 202.815 496.594 209.392 499.041L221.016 509.626C223.628 508.581 227.724 507.382 231.687 507.102C227.066 502.035 218.021 489.566 223.025 484.071C226.038 483.593 233.222 484.337 237.856 491.134C242.49 497.932 240.779 505.394 239.344 508.275C240.411 508.839 241.313 509.62 241.973 510.67C242.599 511.665 244.02 512.337 246.03 512.749C246.203 512.768 246.349 512.797 246.471 512.833C247.821 513.075 249.409 513.21 251.18 513.256C255.284 513.362 260.37 512.987 265.743 512.343C256.876 508.456 248.622 492.756 252.602 485.555C256.422 484.309 265.223 484.291 269.867 494.191C274.511 504.091 272.462 510.665 270.543 511.71Z" fill="#F4BAD2"/>
<path d="M294.755 507.191C278.74 510.862 245.762 516.698 241.973 510.67C241.313 509.62 240.411 508.839 239.344 508.275M221.016 509.626C215.075 511.196 201.841 512.074 196.426 503.019C191.012 493.965 202.815 496.594 209.392 499.041L221.016 509.626ZM221.016 509.626C225.481 507.839 234.28 505.604 239.344 508.275M251.18 513.256C251.099 519.948 247.156 534.978 233.62 533.992C231.665 528.238 230.021 516.152 239.086 513.84C248.15 511.528 247.605 513.329 246.199 514.519M231.687 507.102C227.066 502.035 218.021 489.566 223.025 484.071C226.038 483.593 233.222 484.337 237.856 491.134C242.49 497.932 240.779 505.394 239.344 508.275M265.743 512.343C256.876 508.456 248.622 492.756 252.602 485.555C256.422 484.309 265.223 484.291 269.867 494.191C274.511 504.091 272.462 510.665 270.543 511.71M277.184 510.669C278.567 517.406 279.712 533.827 264.622 537.095C262.66 533.59 263.993 522.969 265.935 519.755C269.032 513.877 271.933 512.009 277.184 510.669Z" stroke="white" stroke-width="3"/>
<path d="M450.589 447.216C452.185 445.656 453.772 444.061 455.321 442.469C455.325 442.464 455.329 442.459 455.333 442.454C455.334 442.455 455.334 442.455 455.334 442.455C460.429 447.075 471.05 459.649 460.805 471.198C457.151 469.528 451.953 460.171 451.622 456.43C450.651 449.866 451.885 446.644 455.321 442.469C453.772 444.061 452.185 445.656 450.589 447.216C449.424 448.355 448.254 449.475 447.09 450.562C443.135 454.255 439.252 457.561 435.877 459.9C439.765 465.348 445.46 479.805 433.955 487.004C428.979 483.516 420.514 474.734 426.463 467.514C428.931 464.52 430.482 463.073 431.422 462.533C429.557 463.388 428.013 463.685 426.92 463.251C425.768 462.794 424.579 462.696 423.384 462.872C421.034 463.219 418.664 464.627 416.513 466.447C413.48 469.014 410.883 472.4 409.393 474.787C405.526 479.563 395.365 488.087 385.648 483.979C375.931 479.87 387.008 475.021 393.761 473.11L409.393 474.787C410.883 472.4 413.48 469.014 416.513 466.447C409.791 465.087 395.128 460.368 395.921 452.979C398.069 450.814 404.305 447.171 412.06 449.919C419.815 452.667 422.841 459.699 423.384 462.872C424.579 462.696 425.768 462.794 426.92 463.251C428.013 463.685 429.557 463.388 431.422 462.533C431.573 462.446 431.708 462.383 431.828 462.34C433.06 461.738 434.421 460.909 435.877 459.9C439.252 457.561 443.135 454.255 447.09 450.562C437.639 452.662 421.705 444.868 420.664 436.707C423.01 433.446 430.101 428.233 439.696 433.479C449.291 438.724 451.52 445.24 450.589 447.216Z" fill="#F4BAD2"/>
<path d="M467.458 429.269C456.703 441.691 433.538 465.878 426.92 463.251C425.768 462.794 424.579 462.696 423.384 462.872M409.393 474.787C405.526 479.563 395.365 488.087 385.648 483.979C375.931 479.87 387.008 475.021 393.761 473.11L409.393 474.787ZM409.393 474.787C411.94 470.708 417.721 463.707 423.384 462.872M435.877 459.9C439.765 465.348 445.46 479.805 433.955 487.004C428.979 483.516 420.514 474.734 426.463 467.514C432.412 460.295 433.036 462.071 432.604 463.861M416.513 466.447C409.791 465.087 395.128 460.368 395.921 452.979C398.069 450.814 404.305 447.171 412.06 449.919C419.815 452.667 422.841 459.699 423.384 462.872M447.09 450.562C437.639 452.662 421.705 444.868 420.664 436.707C423.01 433.446 430.101 428.233 439.696 433.479C449.291 438.724 451.52 445.24 450.589 447.216M455.333 442.454C460.428 447.073 471.051 459.648 460.805 471.198C457.151 469.528 451.953 460.171 451.622 456.43C450.65 449.858 451.888 446.637 455.333 442.454Z" stroke="white" stroke-width="3"/>
<path d="M271.784 43.3075C269.575 43.6222 267.353 43.9706 265.162 44.3388C265.156 44.3405 265.15 44.3421 265.143 44.3437C265.143 44.3431 265.143 44.3426 265.143 44.3421C263.765 37.604 262.631 21.1841 277.722 17.9257C279.682 21.4324 278.342 32.0523 276.398 35.2652C273.301 41.1339 270.401 43.0027 265.162 44.3388C267.353 43.9706 269.575 43.6222 271.784 43.3075C273.398 43.0777 275.004 42.8659 276.585 42.6774C281.958 42.0367 287.044 41.6654 291.149 41.774C291.234 35.0819 295.187 20.0544 308.722 21.0491C310.673 26.8042 312.309 38.8912 303.243 41.1975C299.482 42.1543 297.376 42.4042 296.298 42.2842C298.308 42.697 299.729 43.3699 300.354 44.3657C301.014 45.4159 301.915 46.1979 302.982 46.7619C305.082 47.8715 307.827 48.1369 310.638 47.9402C314.601 47.6628 318.698 46.4667 321.311 45.4229C327.252 43.8563 340.487 42.9876 345.896 52.0456C351.304 61.1035 339.504 58.4664 332.927 56.0156L321.311 45.4229C318.698 46.4667 314.601 47.6628 310.638 47.9402C315.255 53.0104 324.293 65.4849 319.285 70.9763C316.272 71.4524 309.089 70.7045 304.459 63.9038C299.829 57.1031 301.545 49.6422 302.982 46.7619C301.915 46.1979 301.014 45.4159 300.354 44.3657C299.729 43.3699 298.308 42.697 296.298 42.2842C296.126 42.2649 295.979 42.2362 295.857 42.1994C294.508 41.957 292.92 41.8208 291.149 41.774C287.044 41.6654 281.958 42.0367 276.585 42.6774C285.45 46.5703 293.694 62.2756 289.709 69.4734C285.889 70.7174 277.088 70.7297 272.45 60.827C267.812 50.9242 269.865 44.3515 271.784 43.3075Z" fill="#F4BAD2"/>
<path d="M247.57 47.8108C263.587 44.1498 296.569 38.3354 300.354 44.3657C301.014 45.4159 301.915 46.1979 302.982 46.7619M321.311 45.4229C327.252 43.8563 340.487 42.9876 345.896 52.0456C351.304 61.1035 339.504 58.4664 332.927 56.0156L321.311 45.4229ZM321.311 45.4229C316.844 47.2069 308.044 49.4361 302.982 46.7619M291.149 41.774C291.234 35.0819 295.187 20.0544 308.722 21.0491C310.673 26.8042 312.309 38.8912 303.243 41.1975C294.177 43.5039 294.724 41.7027 296.13 40.5138M310.638 47.9402C315.255 53.0104 324.293 65.4849 319.285 70.9763C316.272 71.4524 309.089 70.7045 304.459 63.9038C299.829 57.1031 301.545 49.6422 302.982 46.7619M276.585 42.6774C285.45 46.5703 293.694 62.2756 289.709 69.4734C285.889 70.7174 277.088 70.7297 272.45 60.827C267.812 50.9242 269.865 44.3515 271.784 43.3075M265.143 44.3437C263.765 37.6066 262.63 21.1843 277.722 17.9257C279.682 21.4324 278.342 32.0523 276.398 35.2652C273.297 41.1409 270.395 43.0072 265.143 44.3437Z" stroke="white" stroke-width="3"/>
<path d="M451.397 107.644C449.766 106.12 448.102 104.607 446.441 103.132C446.436 103.128 446.431 103.124 446.426 103.12C446.426 103.119 446.426 103.119 446.427 103.119C450.812 97.8204 462.893 86.6426 474.893 96.3563C473.39 100.082 464.277 105.696 460.555 106.196C454.041 107.463 450.767 106.376 446.441 103.132C448.102 104.607 449.766 106.12 451.397 107.644C452.587 108.757 453.759 109.875 454.897 110.989C458.765 114.773 462.243 118.503 464.732 121.768C469.999 117.639 484.184 111.297 491.895 122.465C488.635 127.593 480.245 136.446 472.764 130.829C469.66 128.499 468.145 127.015 467.563 126.1C468.501 127.924 468.868 129.454 468.484 130.565C468.079 131.737 468.035 132.929 468.265 134.114C468.718 136.446 470.231 138.751 472.147 140.817C474.848 143.731 478.348 146.172 480.8 147.554C485.745 151.2 494.72 160.967 491.054 170.859C487.388 180.751 482.044 169.905 479.83 163.245L480.8 147.554C478.348 146.172 474.848 143.731 472.147 140.817C471.092 147.593 467.04 162.455 459.622 161.997C457.362 159.948 453.441 153.883 455.836 146.012C458.232 138.141 465.12 134.801 468.265 134.114C468.035 132.929 468.079 131.737 468.484 130.565C468.868 129.454 468.501 127.924 467.563 126.1C467.47 125.953 467.401 125.822 467.353 125.703C466.695 124.5 465.806 123.177 464.732 121.768C462.243 118.503 458.765 114.773 454.897 110.989C457.422 120.336 450.356 136.605 442.25 138.013C438.886 135.817 433.358 128.968 438.165 119.146C442.972 109.324 449.38 106.804 451.397 107.644Z" fill="#F4BAD2"/>
<path d="M432.707 91.603C445.601 101.786 470.809 123.835 468.484 130.565C468.079 131.737 468.035 132.929 468.265 134.114M480.8 147.554C485.745 151.2 494.72 160.967 491.054 170.859C487.388 180.751 482.044 169.905 479.83 163.245L480.8 147.554ZM480.8 147.554C476.609 145.193 469.355 139.734 468.265 134.114M464.732 121.768C469.999 117.639 484.184 111.297 491.895 122.465C488.635 127.593 480.245 136.446 472.764 130.829C465.283 125.212 467.029 124.509 468.837 124.859M472.147 140.817C471.092 147.593 467.04 162.455 459.622 161.997C457.362 159.948 453.441 153.883 455.836 146.012C458.232 138.141 465.12 134.801 468.265 134.114M454.897 110.989C457.422 120.336 450.356 136.605 442.25 138.013C438.886 135.817 433.358 128.968 438.165 119.146C442.972 109.324 449.38 106.804 451.397 107.644M446.426 103.12C450.81 97.8222 462.892 86.6419 474.893 96.3563C473.39 100.082 464.277 105.696 460.555 106.196C454.033 107.464 450.759 106.373 446.426 103.12Z" stroke="white" stroke-width="3"/>
<path d="M518.665 279.664C518.57 277.435 518.442 275.189 518.291 272.972C518.29 272.966 518.289 272.96 518.288 272.953C518.288 272.953 518.289 272.953 518.289 272.953C525.13 272.245 541.582 272.733 543.339 288.071C539.657 289.677 529.22 287.298 526.214 285.047C520.679 281.387 519.105 278.318 518.291 272.972C518.442 275.189 518.57 277.435 518.665 279.664C518.735 281.292 518.788 282.911 518.82 284.503C518.929 289.914 518.797 295.011 518.285 299.085C524.937 299.828 539.502 305.242 537.18 318.613C531.261 319.988 519.072 320.427 517.669 311.178C517.087 307.341 517.045 305.22 517.271 304.16C516.662 306.119 515.853 307.467 514.8 307.991C513.69 308.544 512.823 309.363 512.157 310.37C510.846 312.351 510.312 315.056 510.231 317.873C510.117 321.844 510.904 326.038 511.686 328.742C512.66 334.808 512.221 348.065 502.675 352.555C493.129 357.046 496.915 345.562 500.001 339.259L511.686 328.742C510.904 326.038 510.117 321.844 510.231 317.873C504.731 321.969 491.427 329.734 486.456 324.211C486.278 321.165 487.73 314.09 494.953 310.152C502.176 306.214 509.432 308.657 512.157 310.37C512.823 309.363 513.69 308.544 514.8 307.991C515.853 307.467 516.662 306.119 517.271 304.16C517.307 303.99 517.35 303.847 517.399 303.729C517.773 302.41 518.065 300.843 518.285 299.085C518.797 295.011 518.929 289.914 518.82 284.503C514.073 292.942 497.633 299.6 490.862 294.926C490 291.002 490.854 282.242 501.165 278.602C511.477 274.961 517.815 277.652 518.665 279.664Z" fill="#F4BAD2"/>
<path d="M516.567 255.124C518.634 271.424 521.174 304.818 514.8 307.991C513.69 308.544 512.823 309.363 512.157 310.37M511.686 328.742C512.66 334.808 512.221 348.065 502.675 352.555C493.129 357.046 496.915 345.562 500.001 339.259L511.686 328.742ZM511.686 328.742C510.35 324.121 508.998 315.144 512.157 310.37M518.285 299.085C524.937 299.828 539.502 305.242 537.18 318.613C531.261 319.988 519.072 320.427 517.669 311.178C516.266 301.929 518.004 302.65 519.049 304.166M510.231 317.873C504.731 321.969 491.427 329.734 486.456 324.211C486.278 321.165 487.73 314.09 494.953 310.152C502.176 306.214 509.432 308.657 512.157 310.37M518.82 284.503C514.073 292.942 497.633 299.6 490.862 294.926C490 291.002 490.854 282.242 501.165 278.602C511.477 274.961 517.815 277.652 518.665 279.664M518.288 272.953C525.128 272.244 541.582 272.731 543.339 288.071C539.657 289.677 529.22 287.298 526.214 285.047C520.672 281.383 519.101 278.31 518.288 272.953Z" stroke="white" stroke-width="3"/>
<path d="M164.349 81.4296C178.564 70.6028 208.035 50.2529 212.193 55.4677C212.986 55.2165 213.887 54.9438 214.863 54.6643M233.826 52.7205C231.828 50.4819 221.592 52.736 214.863 54.6643M214.863 54.6643C215.616 47.9759 217.922 35.6925 221.117 40.0666M190.783 63.1947C195.76 66.4566 208.223 73.78 212.671 72.5731M184.953 52.3281C181.388 54.6833 174.739 64.293 176.046 72.9018" stroke="white" stroke-width="3"/>
<path d="M185.02 51.9384C183.267 50.9506 182.542 48.4247 183.812 46.1707C185.082 43.9167 187.619 43.2295 189.372 44.2173C191.124 45.2052 191.85 47.731 190.58 49.985C189.309 52.239 186.773 52.9262 185.02 51.9384Z" fill="white" stroke="white" stroke-width="3"/>
<path d="M222.432 42.3815C221.281 41.215 221.244 38.82 223.081 37.007C224.917 35.1939 227.311 35.2606 228.463 36.4271C229.615 37.5935 229.651 39.9885 227.815 41.8016C225.978 43.6146 223.584 43.5479 222.432 42.3815Z" fill="white" stroke="white" stroke-width="3"/>
<path d="M235.168 53.0088C234.238 51.3631 234.876 48.969 237.005 47.7659C239.135 46.5627 241.515 47.2521 242.444 48.8978C243.374 50.5435 242.737 52.9375 240.607 54.1407C238.478 55.3439 236.098 54.6545 235.168 53.0088Z" fill="white" stroke="white" stroke-width="3"/>
<path d="M212.614 70.819C212.043 69.1725 213.184 66.7444 216.024 65.7602C218.865 64.776 221.263 65.9779 221.834 67.6244C222.404 69.271 221.264 71.699 218.423 72.6833C215.582 73.6675 213.184 72.4656 212.614 70.819Z" fill="white" stroke="white" stroke-width="3"/>
<path d="M349.665 58.2953C367.277 61.3178 402.255 69.0121 401.273 75.609C401.997 76.0176 402.811 76.4916 403.681 77.0149M418.028 89.5657C418.304 86.5781 409.678 80.6245 403.681 77.0149M403.681 77.0149C409.088 73.0073 419.648 66.3219 418.625 71.6411M381.026 65.2089C382.031 71.074 385.167 85.1855 389.082 87.6177M385.004 53.5366C380.85 52.5331 369.287 54.2179 363.878 61.0422" stroke="white" stroke-width="3"/>
<path d="M385.334 53.3192C384.862 51.3634 386.216 49.1107 388.731 48.504C391.246 47.8972 393.478 49.2849 393.95 51.2407C394.422 53.1965 393.068 55.4491 390.553 56.0559C388.038 56.6627 385.806 55.275 385.334 53.3192Z" fill="white" stroke="white" stroke-width="3"/>
<path d="M417.825 74.1802C417.894 72.5424 419.622 70.8835 422.2 70.9914C424.778 71.0992 426.361 72.8967 426.293 74.5345C426.224 76.1723 424.496 77.8313 421.918 77.7234C419.34 77.6155 417.757 75.818 417.825 74.1802Z" fill="white" stroke="white" stroke-width="3"/>
<path d="M418.731 90.7434C419.302 88.9414 421.488 87.7761 423.82 88.5142C426.152 89.2524 427.269 91.4635 426.699 93.2656C426.128 95.0677 423.942 96.233 421.61 95.4948C419.278 94.7567 418.161 92.5455 418.731 90.7434Z" fill="white" stroke="white" stroke-width="3"/>
<path d="M390.326 86.3786C391.142 84.8388 393.696 84.0184 396.352 85.4261C399.009 86.8338 399.764 89.4079 398.948 90.9476C398.132 92.4874 395.578 93.3078 392.922 91.9001C390.265 90.4924 389.51 87.9184 390.326 86.3786Z" fill="white" stroke="white" stroke-width="3"/>
<path d="M476.776 175.051C488.788 188.281 511.603 215.887 506.766 220.479C507.085 221.247 507.434 222.122 507.797 223.07M511.368 241.795C513.426 239.611 510.298 229.608 507.797 223.07M507.797 223.07C514.525 223.244 526.962 224.482 522.879 228.042M497.222 199.815C494.402 205.054 488.18 218.103 489.766 222.43M507.546 193.07C504.892 189.721 494.745 183.925 486.281 185.97" stroke="white" stroke-width="3"/>
<path d="M507.941 193.103C508.774 191.272 511.228 190.331 513.583 191.402C515.938 192.474 516.842 194.941 516.009 196.773C515.176 198.604 512.722 199.545 510.367 198.474C508.011 197.402 507.108 194.934 507.941 193.103Z" fill="white" stroke="white" stroke-width="3"/>
<path d="M520.687 229.55C521.75 228.302 524.133 228.06 526.097 229.733C528.062 231.406 528.202 233.797 527.139 235.045C526.076 236.293 523.693 236.536 521.729 234.863C519.764 233.19 519.624 230.798 520.687 229.55Z" fill="white" stroke="white" stroke-width="3"/>
<path d="M511.198 243.156C512.757 242.088 515.197 242.517 516.58 244.535C517.962 246.552 517.48 248.983 515.921 250.051C514.361 251.119 511.921 250.69 510.539 248.672C509.157 246.655 509.638 244.224 511.198 243.156Z" fill="white" stroke="white" stroke-width="3"/>
<path d="M491.509 222.221C493.1 221.51 495.617 222.437 496.843 225.183C498.068 227.928 497.078 230.421 495.486 231.131C493.895 231.841 491.378 230.914 490.152 228.169C488.927 225.424 489.918 222.931 491.509 222.221Z" fill="white" stroke="white" stroke-width="3"/>
<path d="M504.61 353.484C498.679 370.34 485.234 403.535 478.895 401.462C478.371 402.107 477.767 402.83 477.106 403.6M462.329 415.642C465.228 416.415 472.542 408.908 477.106 403.6M477.106 403.6C480.151 409.602 484.973 421.132 479.9 419.233M492.54 383.243C486.589 383.251 472.152 383.979 469.098 387.432M503.381 389.12C505.066 385.193 505.342 373.511 499.521 367.036" stroke="white" stroke-width="3"/>
<path d="M503.539 389.483C505.547 389.345 507.541 391.057 507.717 393.638C507.894 396.22 506.152 398.187 504.145 398.325C502.138 398.462 500.144 396.751 499.967 394.169C499.79 391.588 501.532 389.62 503.539 389.483Z" fill="white" stroke="white" stroke-width="3"/>
<path d="M477.531 418.02C479.134 418.362 480.48 420.344 479.942 422.867C479.404 425.391 477.366 426.651 475.763 426.309C474.16 425.967 472.814 423.986 473.352 421.462C473.891 418.938 475.928 417.679 477.531 418.02Z" fill="white" stroke="white" stroke-width="3"/>
<path d="M461.049 416.138C462.73 417.003 463.513 419.353 462.394 421.528C461.276 423.704 458.909 424.435 457.228 423.571C455.547 422.706 454.764 420.356 455.883 418.181C457.001 416.005 459.368 415.274 461.049 416.138Z" fill="white" stroke="white" stroke-width="3"/>
<path d="M470.111 388.865C471.493 389.928 471.874 392.583 470.041 394.966C468.208 397.349 465.544 397.662 464.163 396.6C462.781 395.538 462.4 392.882 464.233 390.499C466.066 388.116 468.73 387.803 470.111 388.865Z" fill="white" stroke="white" stroke-width="3"/>
<path d="M194.68 487.128C176.897 485.384 141.455 480.233 141.958 473.583C141.206 473.227 140.36 472.813 139.455 472.354M124.24 460.871C124.18 463.871 133.213 469.187 139.455 472.354M139.455 472.354C134.351 476.741 124.301 484.171 124.938 478.792M162.903 482.495C161.477 476.718 157.331 462.869 153.25 460.726M159.778 494.424C163.992 495.125 175.404 492.61 180.306 485.414" stroke="white" stroke-width="3"/>
<path d="M159.462 494.664C160.074 496.58 158.887 498.925 156.422 499.711C153.957 500.498 151.631 499.275 151.019 497.358C150.407 495.442 151.595 493.097 154.06 492.311C156.525 491.524 158.851 492.747 159.462 494.664Z" fill="white" stroke="white" stroke-width="3"/>
<path d="M125.55 476.202C125.6 477.84 123.996 479.62 121.417 479.698C118.837 479.776 117.129 478.098 117.079 476.459C117.029 474.821 118.633 473.042 121.212 472.963C123.791 472.885 125.5 474.563 125.55 476.202Z" fill="white" stroke="white" stroke-width="3"/>
<path d="M123.452 459.747C123.013 461.586 120.916 462.906 118.537 462.338C116.158 461.77 114.884 459.645 115.323 457.806C115.762 455.968 117.859 454.648 120.238 455.216C122.617 455.784 123.891 457.908 123.452 459.747Z" fill="white" stroke="white" stroke-width="3"/>
<path d="M152.1 462.051C151.397 463.645 148.909 464.648 146.158 463.435C143.407 462.223 142.468 459.71 143.171 458.116C143.874 456.521 146.362 455.518 149.113 456.731C151.864 457.943 152.803 460.456 152.1 462.051Z" fill="white" stroke="white" stroke-width="3"/>
<path d="M381.297 485.342C365.297 493.3 332.522 507.738 329.421 501.834C328.595 501.931 327.658 502.029 326.647 502.12M307.657 500.459C309.198 503.034 319.675 502.747 326.647 502.12M326.647 502.12C324.648 508.547 320.072 520.177 317.757 515.28M351.903 498.275C347.629 494.135 336.767 484.596 332.171 484.944M355.583 510.045C359.528 508.403 367.867 500.217 368.203 491.516" stroke="white" stroke-width="3"/>
<path d="M355.444 510.415C356.98 511.715 357.217 514.332 355.545 516.307C353.873 518.282 351.253 518.479 349.717 517.179C348.182 515.879 347.944 513.261 349.616 511.287C351.288 509.312 353.909 509.115 355.444 510.415Z" fill="white" stroke="white" stroke-width="3"/>
<path d="M316.902 512.759C317.814 514.121 317.399 516.48 315.254 517.915C313.109 519.35 310.77 518.834 309.859 517.471C308.947 516.109 309.362 513.75 311.507 512.315C313.652 510.88 315.991 511.396 316.902 512.759Z" fill="white" stroke="white" stroke-width="3"/>
<path d="M306.393 499.924C306.997 501.715 305.92 503.946 303.602 504.727C301.284 505.508 299.077 504.383 298.473 502.591C297.87 500.8 298.947 498.569 301.265 497.788C303.583 497.007 305.79 498.132 306.393 499.924Z" fill="white" stroke="white" stroke-width="3"/>
<path d="M331.9 486.678C332.151 488.402 330.573 490.572 327.598 491.004C324.623 491.436 322.494 489.804 322.244 488.079C321.993 486.355 323.571 484.185 326.546 483.753C329.521 483.321 331.65 484.953 331.9 486.678Z" fill="white" stroke="white" stroke-width="3"/>
<path d="M62.5311 219.291C63.4744 201.447 67.0276 165.809 73.694 166.013C74.0152 165.247 74.3908 164.382 74.8089 163.458M85.5967 147.742C82.5973 147.816 77.6927 157.079 74.8089 163.458M74.8089 163.458C70.1967 158.556 62.3229 148.85 67.7252 149.244M65.7319 187.337C71.4393 185.653 85.0874 180.889 87.0453 176.717M53.6746 184.751C53.1634 188.993 56.1883 200.281 63.5979 204.854" stroke="white" stroke-width="3"/>
<path d="M53.7885 189.785C51.9012 190.482 49.5058 189.401 48.6092 186.974C47.7126 184.547 48.8299 182.168 50.7172 181.471C52.6044 180.774 54.9998 181.855 55.8964 184.282C56.793 186.709 55.6757 189.088 53.7885 189.785Z" fill="white" stroke="white" stroke-width="3"/>
<path d="M70.7081 155.078C69.0735 155.201 67.224 153.679 67.0298 151.106C66.8356 148.533 68.4357 146.75 70.0702 146.627C71.7048 146.503 73.5544 148.025 73.7486 150.599C73.9428 153.172 72.3427 154.954 70.7081 155.078Z" fill="white" stroke="white" stroke-width="3"/>
<path d="M87.0538 152.243C85.1974 151.887 83.7845 149.852 84.2451 147.45C84.7056 145.047 86.771 143.679 88.6274 144.035C90.4838 144.391 91.8967 146.426 91.4361 148.828C90.9756 151.231 88.9102 152.599 87.0538 152.243Z" fill="white" stroke="white" stroke-width="3"/>
<path d="M86.0395 180.964C84.4149 180.333 83.3016 177.893 84.3891 175.09C85.4767 172.287 87.9448 171.236 89.5694 171.867C91.194 172.497 92.3073 174.938 91.2197 177.741C90.1322 180.543 87.664 181.594 86.0395 180.964Z" fill="white" stroke="white" stroke-width="3"/>
<path d="M78.4338 376.249C66.2223 363.204 42.9909 335.946 47.7576 331.281C47.4274 330.519 47.0647 329.649 46.6878 328.707M42.8325 310.038C40.8079 312.253 44.0876 322.208 46.6878 328.707M46.6878 328.707C39.9574 328.635 27.5037 327.586 31.5315 323.964M57.6142 351.799C60.3551 346.517 66.3779 333.376 64.7265 329.073M47.3943 358.7C50.0985 362.008 60.3326 367.649 68.7646 365.476" stroke="white" stroke-width="3"/>
<path d="M47.0023 358.672C46.1972 360.516 43.7579 361.494 41.3867 360.459C39.0156 359.423 38.0749 356.969 38.8801 355.125C39.6852 353.282 42.1245 352.304 44.4956 353.339C46.8667 354.375 47.8075 356.828 47.0023 358.672Z" fill="white" stroke="white" stroke-width="3"/>
<path d="M33.7025 322.423C32.6587 323.687 30.2797 323.965 28.29 322.322C26.3002 320.679 26.1239 318.29 27.1677 317.026C28.2115 315.762 30.5905 315.484 32.5802 317.127C34.57 318.77 34.7463 321.159 33.7025 322.423Z" fill="white" stroke="white" stroke-width="3"/>
<path d="M42.9844 308.675C41.4414 309.766 38.995 309.375 37.5823 307.378C36.1695 305.381 36.6142 302.944 38.1573 301.852C39.7003 300.761 42.1466 301.152 43.5594 303.149C44.9722 305.146 44.5274 307.583 42.9844 308.675Z" fill="white" stroke="white" stroke-width="3"/>
<path d="M62.9898 329.309C61.4095 330.043 58.8784 329.155 57.6114 326.429C56.3445 323.702 57.2972 321.195 58.8774 320.46C60.4577 319.726 62.9888 320.614 64.2558 323.341C65.5228 326.067 64.5701 328.575 62.9898 329.309Z" fill="white" stroke="white" stroke-width="3"/>
</svg>
