<?xml version="1.0" encoding="UTF-8"?>
<svg id="_レイヤー_2" data-name="レイヤー 2" xmlns="http://www.w3.org/2000/svg" viewBox="0 0 142.73 103.96">
  <defs>
    <style>
      .cls-1 {
        stroke-width: .84px;
      }

      .cls-1, .cls-2, .cls-3, .cls-4, .cls-5 {
        fill: none;
        stroke-linecap: round;
        stroke-linejoin: round;
      }

      .cls-1, .cls-3, .cls-4, .cls-5 {
        stroke: #000;
      }

      .cls-2 {
        opacity: .7;
        stroke: #fff;
        stroke-width: 2.79px;
      }

      .cls-6 {
        fill: #fff;
      }

      .cls-6, .cls-7 {
        stroke-width: 0px;
      }

      .cls-3 {
        stroke-width: 1.06px;
      }

      .cls-4 {
        stroke-width: 1.12px;
      }

      .cls-5 {
        stroke-width: 1.02px;
      }

      .cls-7 {
        fill: #edccbc;
      }
    </style>
  </defs>
  <g id="_レイヤー_1-2" data-name="レイヤー 1">
    <g>
      <path class="cls-7" d="m132.53,24.86s7.46,1.83,3.14,8.02c0,0-2.7,3.58-6.16,5.39-3.46,1.81-2.55,1.48-6.57,1.78-4.02.3-4.74,1.13-4.74,1.13-3.46,1.81-2.89-.11-6.75,1.27-.85.31-1.46.42-2.02.57-1.24.33-2.15.85-4.52,4.07-1.63,1.16-2.85,1.25-4.14,1.13-1.76-.16-4.37-.14-6.45.94-2.51,1.32-.88,3.18-7.98,6.29-4.25,1.86-6.99.82-8.21.49-1.02-.28-2.4-.12-3.7.35l-9.26,3.31c-3.28,1.18-4.48.22-6.22-.06-2.2-.36-3.31,1.03-4.52,1.9-.52.37-1.16.66-1.83.82l-3.66.87c-4.75,1.13-1.93-1.09-4.59-1.22-4.2-.21-2.54,1.48-6.37,2.28-4.16.87-2.2-.36-4.58-1.22-1.72-.62-6.51,1.93-9.08,3.42-1.08.63-2.47.81-3.24.4-1.31-.71-.44-1.2-1.75-1.64-.95-.32-2.52.34-3.67.96-1,.54-2.2.75-3.09.55-5.7-1.31-5.72-3.28-5.72-3.28-11.61,1.84-3.62-8.91-3.62-8.91,0,0,22.56.42,47.64-4.3,5.57-1.05,11.31-2.33,17.05-3.89,1.58-.43,3.15-.86,4.7-1.29,4.49-1.23,8.82-2.43,12.97-3.6,22.91-6.45,41.09-11.99,46.93-16.52Z"/>
      <path class="cls-6" d="m135.67,32.88s5.91,7.53,2.02,14.91c-5.84,4.53-23.02,10.02-45.93,16.47-4.15,1.17-8.49,2.37-12.97,3.6-1.55.43-3.11.85-4.7,1.29-5.74,1.56-11.48,2.84-17.05,3.89-25.09,4.72-47.33,4.67-47.33,4.67-4.59-4.75-2.85-14.34-2.85-14.34,0,0,.02,1.96,5.72,3.28.89.2,2.09,0,3.09-.55,1.14-.61,2.71-1.28,3.67-.96,1.31.44.44.94,1.75,1.64.77.41,2.16.23,3.24-.4,2.57-1.49,7.36-4.04,9.08-3.42,2.39.86.42,2.09,4.58,1.22,3.83-.8,2.17-2.5,6.37-2.28,2.66.13-.16,2.35,4.59,1.22l3.66-.87c.67-.16,1.31-.44,1.83-.82,1.22-.87,2.33-2.26,4.52-1.9,1.74.28,2.94,1.24,6.22.06l9.26-3.31c1.3-.47,2.68-.63,3.7-.35,1.21.33,3.96,1.38,8.21-.49,7.1-3.12,5.47-4.97,7.98-6.29,2.08-1.08,4.69-1.1,6.45-.94,1.29.12,2.5.03,4.14-1.13,2.37-3.22,3.28-3.73,4.52-4.07.56-.15,1.17-.26,2.02-.57,3.86-1.38,3.3.54,6.75-1.27,0,0,.72-.83,4.74-1.13,4.02-.3,3.11.03,6.57-1.78,3.46-1.81,6.16-5.39,6.16-5.39Z"/>
      <path class="cls-7" d="m59.16,5.66c76.37-18.55,73.37,19.21,73.37,19.21-5.84,4.53-24.02,10.07-46.93,16.52-4.15,1.17-8.49,2.37-12.97,3.6-1.55.43-3.11.85-4.7,1.29-5.74,1.56-11.48,2.84-17.05,3.89-25.09,4.72-47.64,4.3-47.64,4.3,0,0-20.45-30.24,55.92-48.8Z"/>
      <path class="cls-7" d="m137.69,47.78s8.71,3.43,1.85,10.85c0,0-3.98,4.36-7.28,6.11-3.29,1.75-2.42,1.44-6.28,1.67-3.86.24-4.54,1.06-4.54,1.06-3.3,1.75-2.78-.15-6.47,1.17-.82.29-1.42.4-1.96.54-1.17.32-2.04.83-4.26,3.97-1.55,1.13-2.72,1.2-3.96,1.06-1.7-.19-4.21-.2-6.18.85-2.4,1.28-.8,3.15-7.58,6.15-4.06,1.79-6.71.71-7.89.37-.98-.29-2.31-.15-3.55.29l-8.86,3.18c-3.14,1.12-4.3.15-5.98-.15-2.11-.38-3.16.99-4.32,1.83-.49.36-1.11.64-1.75.79l-3.51.81c-4.54,1.05-1.86-1.1-4.42-1.27-4.04-.27-2.42,1.44-6.1,2.18-3.98.8-2.11-.38-4.42-1.28-1.66-.64-6.23,1.83-8.67,3.27-1.03.61-2.36.78-3.11.35-1.27-.72-.44-1.2-1.7-1.66-.93-.34-2.42.31-3.51.91-.96.52-2.11.71-2.97.5-5.31-1.34-5.73-2.58-5.76-2.67h0c-9.1-3.97-4.82-10.97-4.82-10.97,0,0,22.25.05,47.33-4.67,5.57-1.05,11.31-2.33,17.05-3.89,1.58-.43,3.15-.86,4.7-1.29,4.49-1.23,8.82-2.43,12.97-3.6,22.91-6.45,40.09-11.94,45.93-16.47Z"/>
      <path class="cls-7" d="m139.54,58.63s15.66,21.56-55.65,38.88C13.22,114.69,14.5,89.15,14.53,88.68c.02.08.44,1.33,5.76,2.67.85.22,2.01.02,2.97-.5,1.09-.6,2.58-1.24,3.51-.91,1.26.45.43.94,1.7,1.66.74.42,2.07.26,3.11-.35,2.44-1.44,7.02-3.91,8.67-3.27,2.3.89.44,2.08,4.42,1.28,3.68-.74,2.05-2.45,6.1-2.18,2.56.17-.12,2.33,4.42,1.27l3.51-.81c.64-.15,1.26-.43,1.75-.79,1.16-.85,2.21-2.22,4.32-1.83,1.67.31,2.84,1.28,5.98.15l8.86-3.18c1.24-.44,2.57-.58,3.55-.29,1.18.35,3.83,1.43,7.89-.37,6.78-3,5.18-4.87,7.58-6.15,1.97-1.05,4.49-1.04,6.18-.85,1.24.13,2.4.06,3.96-1.06,2.21-3.14,3.08-3.66,4.26-3.97.54-.15,1.14-.25,1.96-.54,3.69-1.32,3.18.58,6.47-1.17,0,0,.68-.81,4.54-1.06,3.86-.23,2.99.08,6.28-1.67,3.3-1.75,7.28-6.11,7.28-6.11Z"/>
      <path class="cls-3" d="m3.24,54.46S-17.21,24.22,59.16,5.66c76.37-18.55,73.37,19.21,73.37,19.21"/>
      <path class="cls-2" d="m34.41,19.68c-11.57,4.76-22.23,11.18-25.99,19.37-1.62,3.55-1.52,6.65-1.03,8.84"/>
      <path class="cls-2" d="m55.14,12.8c-4.39,1.18-9.26,2.64-14.16,4.38"/>
      <path class="cls-5" d="m14.53,88.68c-.03.47-1.31,26.01,69.35,8.84,71.31-17.33,55.65-38.88,55.65-38.88"/>
      <path class="cls-1" d="m6.86,63.37s-1.74,9.59,2.85,14.34"/>
      <path class="cls-4" d="m3.24,54.46s22.56.42,47.64-4.3c5.57-1.05,11.31-2.33,17.05-3.89,1.58-.43,3.15-.86,4.7-1.29,4.49-1.23,8.82-2.43,12.97-3.6,22.91-6.45,41.09-11.99,46.93-16.52"/>
      <text/>
      <path class="cls-4" d="m3.24,54.46s-7.99,10.75,3.62,8.91"/>
      <path class="cls-4" d="m9.71,77.71s-4.27,7,4.82,10.97"/>
      <path class="cls-4" d="m132.53,24.86s7.46,1.83,3.14,8.02"/>
      <path class="cls-4" d="m137.69,47.78s8.71,3.43,1.85,10.85"/>
      <path class="cls-4" d="m135.67,32.88s5.91,7.53,2.02,14.91"/>
      <path class="cls-4" d="m6.86,63.37s.02,1.96,5.72,3.28c.89.2,2.09,0,3.09-.55,1.14-.61,2.71-1.28,3.67-.96,1.31.44.44.94,1.75,1.64.77.41,2.16.23,3.24-.4,2.57-1.49,7.36-4.04,9.08-3.42,2.39.86.42,2.09,4.58,1.22,3.83-.8,2.17-2.5,6.37-2.28,2.66.13-.16,2.35,4.59,1.22l3.66-.87c.67-.16,1.31-.44,1.83-.82,1.22-.87,2.33-2.26,4.52-1.9,1.74.28,2.94,1.24,6.22.06l9.26-3.31c1.3-.47,2.68-.63,3.7-.35,1.21.33,3.96,1.38,8.21-.49,7.1-3.12,5.47-4.97,7.98-6.29,2.08-1.08,4.69-1.1,6.45-.94,1.29.12,2.5.03,4.14-1.13,2.37-3.22,3.28-3.73,4.52-4.07.56-.15,1.17-.26,2.02-.57,3.86-1.38,3.3.54,6.75-1.27,0,0,.72-.83,4.74-1.13,4.02-.3,3.11.03,6.57-1.78,3.46-1.81,6.16-5.39,6.16-5.39"/>
      <path class="cls-4" d="m14.53,88.68h0c.02.09.44,1.33,5.76,2.67.85.22,2.01.02,2.97-.5,1.09-.6,2.58-1.24,3.51-.91,1.26.45.43.94,1.7,1.66.74.42,2.07.26,3.11-.35,2.44-1.44,7.02-3.91,8.67-3.27,2.3.89.44,2.08,4.42,1.28,3.68-.74,2.05-2.45,6.1-2.18,2.56.17-.12,2.33,4.42,1.27l3.51-.81c.64-.15,1.26-.43,1.75-.79,1.16-.85,2.21-2.22,4.32-1.83,1.67.31,2.84,1.28,5.98.15l8.86-3.18c1.24-.44,2.57-.58,3.55-.29,1.18.35,3.83,1.43,7.89-.37,6.78-3,5.18-4.87,7.58-6.15,1.97-1.05,4.49-1.04,6.18-.85,1.24.13,2.4.06,3.96-1.06,2.21-3.14,3.08-3.66,4.26-3.97.54-.15,1.14-.25,1.96-.54,3.69-1.32,3.18.58,6.47-1.17,0,0,.68-.81,4.54-1.06,3.86-.23,2.99.08,6.28-1.67,3.3-1.75,7.28-6.11,7.28-6.11"/>
    </g>
  </g>
</svg>