<svg width="1276" height="917" viewBox="0 0 1276 917" fill="none" xmlns="http://www.w3.org/2000/svg">
<g filter="url(#filter0_d_86_90)">
<path fill-rule="evenodd" clip-rule="evenodd" d="M586.889 97.4644C692.416 85.6131 795.724 86.7168 891.142 105.978C988.538 125.638 1079.61 156.253 1137.04 208.517C1195.49 261.709 1222.34 329.508 1214.03 399.815C1205.88 468.756 1147.37 533.196 1091.11 596.98C1031.39 664.675 980.372 741.446 876.796 782.109C771.897 823.291 648.086 824.022 537.109 814.474C432.985 805.516 350.283 768.632 270.377 729.935C189.529 690.781 101.548 652.551 70.8108 588.65C39.5635 523.689 67.9728 449.149 101.189 378.202C135.074 305.828 172.967 228.938 263.808 176.431C353.845 124.389 474.143 110.126 586.889 97.4644Z" fill="#BBBBF2" fill-opacity="0.6" shape-rendering="crispEdges"/>
</g>
<defs>
<filter id="filter0_d_86_90" x="55.3115" y="87.7729" width="1178.2" height="749.722" filterUnits="userSpaceOnUse" color-interpolation-filters="sRGB">
<feFlood flood-opacity="0" result="BackgroundImageFix"/>
<feColorMatrix in="SourceAlpha" type="matrix" values="0 0 0 0 0 0 0 0 0 0 0 0 0 0 0 0 0 0 127 0" result="hardAlpha"/>
<feOffset dx="8" dy="8"/>
<feGaussianBlur stdDeviation="5"/>
<feComposite in2="hardAlpha" operator="out"/>
<feColorMatrix type="matrix" values="0 0 0 0 0 0 0 0 0 0 0 0 0 0 0 0 0 0 0.25 0"/>
<feBlend mode="normal" in2="BackgroundImageFix" result="effect1_dropShadow_86_90"/>
<feBlend mode="normal" in="SourceGraphic" in2="effect1_dropShadow_86_90" result="shape"/>
</filter>
</defs>
</svg>
