<?xml version="1.0" encoding="UTF-8"?>
<svg id="_レイヤー_2" data-name="レイヤー 2" xmlns="http://www.w3.org/2000/svg" viewBox="0 0 260 287.61">
  <defs>
    <style>
      .cls-1 {
        fill: #edccbc;
        stroke-width: 0px;
      }
    </style>
  </defs>
  <g id="_レイヤー_1-2" data-name="レイヤー 1">
    <path class="cls-1" d="m245.21,202.86c-.16-.04-.32-.11-.47-.2-11.79-7.15-17.02-38.14-17.41-40.55-.02-.1-.04-.2-.08-.29-3.38-9.64,16.98-56.69,19.97-63.5.23-.53.65-.92,1.16-1.12,9.86-3.85,11.46-12.59,11.61-17.04.05-1.5-1.04-2.72-2.41-2.72-.89,0-1.68-.63-1.95-1.56l-.39-1.33c-.53-1.81-1.73-3.3-3.31-4.11l-.94-.48c-.51-.26-.9-.74-1.08-1.32-.8-2.61-2.89-4.52-5.38-4.85-5.06-.68-9.08,2.27-10.92,3.95-.49.45-1.15.6-1.77.42-2.59-.72-11.81,1.82-15.78,2.98-1.02.3-2.06-.32-2.42-1.41-4.77-14.69-19.87-27.1-23.93-30.22-.62-.48-.93-1.3-.81-2.12C194.31.08,182.17.43,182.17.43c-20.82-3.39-33.9,14.13-37.16,19.11-.49.75-1.35,1.08-2.16.85-14.9-4.15-44.89,6.16-50.15,8.05-.51.18-1.05.13-1.52-.14-3.87-2.25-22.49-12.26-35.91-4.67-13.33,7.54-3.04,31.6-.52,36.98.32.68.28,1.49-.09,2.14-12.74,22.58-13.65,39.87-13.35,42.63l-14.26-.68c-.37-.02-.73-.15-1.04-.37-4.2-2.97-8.51-3.23-11.77-2.76-3.11.45-5.42,3.38-5.42,6.82,0,.81-.39,1.55-1.03,1.95l-.68.43c-1.74,1.09-2.71,3.21-2.46,5.38h0c.14,1.2-.61,2.3-1.7,2.49-2.05.37-3.36,2.59-2.83,4.79,3,12.48,9.86,14.12,12.69,14.25.68.03,1.3.42,1.67,1.04,4.24,7.11,39.12,36.73,40.12,37.58.02.01.03.03.04.04,16.91,15.92,13.71,63.02,13.14,70.02-.05.56-.29,1.07-.66,1.46-6.38,6.61-5.17,14.32-3.64,18.74.73,2.12,2.8,3.32,4.82,2.82l1.02-.25c.96-.23,1.94.31,2.33,1.31l.61,1.57c.4,1.03,1.38,1.64,2.39,1.5l1.52-.21c1.11-.15,2.12.7,2.28,1.91l.06.45c.2,1.54,1.52,2.62,2.91,2.31,5.39-1.23,11.11-8.47,13.06-11.13.42-.57,1.05-.9,1.72-.9h0c8.57,0,25.13-15.33,26.37-16.49.05-.05.09-.09.13-.15,2.71-3.4,15.69-9.38,21.11-11.78,1.17-.52,2.48.24,2.74,1.59,1.96,10.23,10.77,25.31,10.77,25.31,11.12,19.34,36.51,22.57,36.51,22.57,21.43,2.95,27.46-4.94,27.5-12.21.06-10.66-2.56-17.11-15.6-23.96-7.48-3.93-18.8-8.78-26.91-16.55-.07-.07-.1-.14-.11-.22h.15s-.09-.06-.14-.09c.03-.19.18-.35.39-.3,23.79,5.93,48.66,3.14,54.68,2.32.7-.1,1.43.16,1.88.76,1.54,2.05,5.27,2.23,8.73,1.87,4.09-.42,7.32-4.01,7.66-8.49l.02-.25c.06-.78.49-1.47,1.13-1.82l.46-.25c1.52-.83,2.58-2.43,2.82-4.28l.17-1.27c.07-.51.3-.99.65-1.34,3.09-3.09,3.18-8.46.09-11.55-4.24-4.25-10.84-6.12-12.17-6.47Z"/>
  </g>
</svg>