<svg width="1925" height="113" viewBox="0 0 1925 113" fill="none" xmlns="http://www.w3.org/2000/svg">
<path d="M1925 0C1925 0 1925 0.5 1925 112.166L0 112.166C0 49.7509 0 0.166016 0 0.166016C55.9247 5.96281 46.7953 13.5867 97.0757 41.6384C251.764 100.988 416.647 0.517136 440 5.5C483.647 0.0171356 548.571 81.782 682.224 45.6157C843.305 -13.2149 971.072 2.02696 1040.84 26.9812C1125.24 74.6376 1172.95 45.6157 1291.64 26.9812C1372.9 13.1418 1399.48 -26.7264 1476 29C1553.39 85.3582 1587.5 -3.5 1679.5 51C1723 76.769 1829 32.166 1857.5 17.737C1888.5 4.92539 1925 0 1925 0Z" fill="#F7EDE7"/>
</svg>
